%TF.GenerationSoftware,KiCad,Pcbnew,(5.1.8)-1*%
%TF.CreationDate,2021-07-13T09:26:45+05:30*%
%TF.ProjectId,rfsm,7266736d-2e6b-4696-9361-645f70636258,rev?*%
%TF.SameCoordinates,Original*%
%TF.FileFunction,Soldermask,Top*%
%TF.FilePolarity,Negative*%
%FSLAX46Y46*%
G04 Gerber Fmt 4.6, Leading zero omitted, Abs format (unit mm)*
G04 Created by KiCad (PCBNEW (5.1.8)-1) date 2021-07-13 09:26:45*
%MOMM*%
%LPD*%
G01*
G04 APERTURE LIST*
%ADD10O,1.700000X1.700000*%
%ADD11R,1.700000X1.700000*%
%ADD12C,1.700000*%
%ADD13C,2.200000*%
%ADD14R,1.600000X1.600000*%
%ADD15O,1.600000X1.600000*%
%ADD16R,3.500000X3.500000*%
%ADD17O,1.700000X1.950000*%
%ADD18R,0.800000X0.900000*%
%ADD19C,1.440000*%
%ADD20R,1.905000X2.000000*%
%ADD21O,1.905000X2.000000*%
G04 APERTURE END LIST*
D10*
%TO.C,J14*%
X170180000Y-91440000D03*
D11*
X167640000Y-91440000D03*
%TD*%
D10*
%TO.C,J13*%
X233680000Y-82550000D03*
D11*
X236220000Y-82550000D03*
%TD*%
D12*
%TO.C,U1*%
X125984000Y-66294000D03*
X125984000Y-68834000D03*
X123444000Y-66294000D03*
X123444000Y-68834000D03*
X120904000Y-66294000D03*
X120904000Y-68834000D03*
X118364000Y-66294000D03*
X118364000Y-68834000D03*
X115824000Y-66294000D03*
X115824000Y-68834000D03*
X113284000Y-66294000D03*
X113284000Y-68834000D03*
X110744000Y-66294000D03*
X110744000Y-68834000D03*
X108204000Y-66294000D03*
X108204000Y-68834000D03*
X105664000Y-66294000D03*
X105664000Y-68834000D03*
X103124000Y-66294000D03*
X103124000Y-68834000D03*
X100584000Y-66294000D03*
X100584000Y-68834000D03*
X98044000Y-66294000D03*
X98044000Y-68834000D03*
X95504000Y-66294000D03*
X95504000Y-68834000D03*
X92964000Y-66294000D03*
X92964000Y-68834000D03*
X90424000Y-66294000D03*
X90424000Y-68834000D03*
X87884000Y-66294000D03*
X87884000Y-68834000D03*
X85344000Y-66294000D03*
X85344000Y-68834000D03*
X82804000Y-66294000D03*
X82804000Y-68834000D03*
X80264000Y-66294000D03*
X80264000Y-68834000D03*
X77724000Y-66294000D03*
X77724000Y-68834000D03*
X75184000Y-66294000D03*
X75184000Y-68834000D03*
X72644000Y-66294000D03*
X72644000Y-68834000D03*
X70104000Y-66294000D03*
X70104000Y-68834000D03*
X67564000Y-66294000D03*
X67564000Y-68834000D03*
X65024000Y-66294000D03*
X65024000Y-68834000D03*
X62484000Y-66294000D03*
X62484000Y-68834000D03*
X59944000Y-66294000D03*
X59944000Y-68834000D03*
X57404000Y-66294000D03*
X57404000Y-68834000D03*
X54864000Y-66294000D03*
X54864000Y-68834000D03*
X52324000Y-66294000D03*
X52324000Y-68834000D03*
X49784000Y-66294000D03*
X49784000Y-68834000D03*
X47244000Y-66294000D03*
X47244000Y-68834000D03*
X44704000Y-66294000D03*
X44704000Y-68834000D03*
X42164000Y-66294000D03*
X42164000Y-68834000D03*
X39624000Y-66294000D03*
X39624000Y-68834000D03*
X37084000Y-66294000D03*
X37084000Y-68834000D03*
X125984000Y-127254000D03*
X125984000Y-129794000D03*
X123444000Y-127254000D03*
X123444000Y-129794000D03*
X120904000Y-127254000D03*
X120904000Y-129794000D03*
X118364000Y-127254000D03*
X118364000Y-129794000D03*
X115824000Y-127254000D03*
X115824000Y-129794000D03*
X113284000Y-127254000D03*
X113284000Y-129794000D03*
X110744000Y-127254000D03*
X110744000Y-129794000D03*
X108204000Y-127254000D03*
X108204000Y-129794000D03*
X105664000Y-127254000D03*
X105664000Y-129794000D03*
X103124000Y-127254000D03*
X103124000Y-129794000D03*
X100584000Y-127254000D03*
X100584000Y-129794000D03*
X98044000Y-127254000D03*
X98044000Y-129794000D03*
X95504000Y-127254000D03*
X95504000Y-129794000D03*
X92964000Y-127254000D03*
X92964000Y-129794000D03*
X90424000Y-127254000D03*
X90424000Y-129794000D03*
X87884000Y-127254000D03*
X87884000Y-129794000D03*
X85344000Y-127254000D03*
X85344000Y-129794000D03*
X82804000Y-127254000D03*
X82804000Y-129794000D03*
X80264000Y-127254000D03*
X80264000Y-129794000D03*
X77724000Y-127254000D03*
X77724000Y-129794000D03*
X75184000Y-127254000D03*
X75184000Y-129794000D03*
X72644000Y-127254000D03*
X72644000Y-129794000D03*
X70104000Y-127254000D03*
X70104000Y-129794000D03*
X67564000Y-127254000D03*
X67564000Y-129794000D03*
X65024000Y-127254000D03*
X65024000Y-129794000D03*
X62484000Y-127254000D03*
X62484000Y-129794000D03*
X59944000Y-127254000D03*
X59944000Y-129794000D03*
X57404000Y-127254000D03*
X57404000Y-129794000D03*
X54864000Y-127254000D03*
X54864000Y-129794000D03*
X52324000Y-127254000D03*
X52324000Y-129794000D03*
X49784000Y-127254000D03*
X49784000Y-129794000D03*
X47244000Y-127254000D03*
X47244000Y-129794000D03*
X44704000Y-127254000D03*
X44704000Y-129794000D03*
X42164000Y-127254000D03*
X42164000Y-129794000D03*
X39624000Y-127254000D03*
X39624000Y-129794000D03*
X37084000Y-127254000D03*
X37084000Y-129794000D03*
X153924000Y-66294000D03*
X151384000Y-66294000D03*
X153924000Y-129794000D03*
X151384000Y-129794000D03*
%TD*%
%TO.C,C17*%
G36*
G01*
X227054999Y-72715000D02*
X227605001Y-72715000D01*
G75*
G02*
X227855000Y-72964999I0J-249999D01*
G01*
X227855000Y-73765001D01*
G75*
G02*
X227605001Y-74015000I-249999J0D01*
G01*
X227054999Y-74015000D01*
G75*
G02*
X226805000Y-73765001I0J249999D01*
G01*
X226805000Y-72964999D01*
G75*
G02*
X227054999Y-72715000I249999J0D01*
G01*
G37*
G36*
G01*
X227054999Y-70765000D02*
X227605001Y-70765000D01*
G75*
G02*
X227855000Y-71014999I0J-249999D01*
G01*
X227855000Y-71815001D01*
G75*
G02*
X227605001Y-72065000I-249999J0D01*
G01*
X227054999Y-72065000D01*
G75*
G02*
X226805000Y-71815001I0J249999D01*
G01*
X226805000Y-71014999D01*
G75*
G02*
X227054999Y-70765000I249999J0D01*
G01*
G37*
%TD*%
D13*
%TO.C,REF\u002A\u002A*%
X228600000Y-137160000D03*
%TD*%
%TO.C,REF\u002A\u002A*%
X228600000Y-58420000D03*
%TD*%
%TO.C,REF\u002A\u002A*%
X33020000Y-137160000D03*
%TD*%
%TO.C,REF\u002A\u002A*%
X33020000Y-58420000D03*
%TD*%
D14*
%TO.C,U9*%
X44908800Y-75666600D03*
D15*
X60148800Y-83286600D03*
X47448800Y-75666600D03*
X57608800Y-83286600D03*
X49988800Y-75666600D03*
X55068800Y-83286600D03*
X52528800Y-75666600D03*
X52528800Y-83286600D03*
X55068800Y-75666600D03*
X49988800Y-83286600D03*
X57608800Y-75666600D03*
X47448800Y-83286600D03*
X60148800Y-75666600D03*
X44908800Y-83286600D03*
%TD*%
%TO.C,C1*%
G36*
G01*
X220312000Y-72110000D02*
X219362000Y-72110000D01*
G75*
G02*
X219112000Y-71860000I0J250000D01*
G01*
X219112000Y-71185000D01*
G75*
G02*
X219362000Y-70935000I250000J0D01*
G01*
X220312000Y-70935000D01*
G75*
G02*
X220562000Y-71185000I0J-250000D01*
G01*
X220562000Y-71860000D01*
G75*
G02*
X220312000Y-72110000I-250000J0D01*
G01*
G37*
G36*
G01*
X220312000Y-70035000D02*
X219362000Y-70035000D01*
G75*
G02*
X219112000Y-69785000I0J250000D01*
G01*
X219112000Y-69110000D01*
G75*
G02*
X219362000Y-68860000I250000J0D01*
G01*
X220312000Y-68860000D01*
G75*
G02*
X220562000Y-69110000I0J-250000D01*
G01*
X220562000Y-69785000D01*
G75*
G02*
X220312000Y-70035000I-250000J0D01*
G01*
G37*
%TD*%
%TO.C,C2*%
G36*
G01*
X204694201Y-72110000D02*
X204144199Y-72110000D01*
G75*
G02*
X203894200Y-71860001I0J249999D01*
G01*
X203894200Y-71059999D01*
G75*
G02*
X204144199Y-70810000I249999J0D01*
G01*
X204694201Y-70810000D01*
G75*
G02*
X204944200Y-71059999I0J-249999D01*
G01*
X204944200Y-71860001D01*
G75*
G02*
X204694201Y-72110000I-249999J0D01*
G01*
G37*
G36*
G01*
X204694201Y-70160000D02*
X204144199Y-70160000D01*
G75*
G02*
X203894200Y-69910001I0J249999D01*
G01*
X203894200Y-69109999D01*
G75*
G02*
X204144199Y-68860000I249999J0D01*
G01*
X204694201Y-68860000D01*
G75*
G02*
X204944200Y-69109999I0J-249999D01*
G01*
X204944200Y-69910001D01*
G75*
G02*
X204694201Y-70160000I-249999J0D01*
G01*
G37*
%TD*%
%TO.C,C3*%
G36*
G01*
X204201599Y-92736000D02*
X204751601Y-92736000D01*
G75*
G02*
X205001600Y-92985999I0J-249999D01*
G01*
X205001600Y-93786001D01*
G75*
G02*
X204751601Y-94036000I-249999J0D01*
G01*
X204201599Y-94036000D01*
G75*
G02*
X203951600Y-93786001I0J249999D01*
G01*
X203951600Y-92985999D01*
G75*
G02*
X204201599Y-92736000I249999J0D01*
G01*
G37*
G36*
G01*
X204201599Y-94686000D02*
X204751601Y-94686000D01*
G75*
G02*
X205001600Y-94935999I0J-249999D01*
G01*
X205001600Y-95736001D01*
G75*
G02*
X204751601Y-95986000I-249999J0D01*
G01*
X204201599Y-95986000D01*
G75*
G02*
X203951600Y-95736001I0J249999D01*
G01*
X203951600Y-94935999D01*
G75*
G02*
X204201599Y-94686000I249999J0D01*
G01*
G37*
%TD*%
%TO.C,C4*%
G36*
G01*
X209078400Y-92736000D02*
X210028400Y-92736000D01*
G75*
G02*
X210278400Y-92986000I0J-250000D01*
G01*
X210278400Y-93661000D01*
G75*
G02*
X210028400Y-93911000I-250000J0D01*
G01*
X209078400Y-93911000D01*
G75*
G02*
X208828400Y-93661000I0J250000D01*
G01*
X208828400Y-92986000D01*
G75*
G02*
X209078400Y-92736000I250000J0D01*
G01*
G37*
G36*
G01*
X209078400Y-94811000D02*
X210028400Y-94811000D01*
G75*
G02*
X210278400Y-95061000I0J-250000D01*
G01*
X210278400Y-95736000D01*
G75*
G02*
X210028400Y-95986000I-250000J0D01*
G01*
X209078400Y-95986000D01*
G75*
G02*
X208828400Y-95736000I0J250000D01*
G01*
X208828400Y-95061000D01*
G75*
G02*
X209078400Y-94811000I250000J0D01*
G01*
G37*
%TD*%
%TO.C,C5*%
G36*
G01*
X201302600Y-118509200D02*
X202252600Y-118509200D01*
G75*
G02*
X202502600Y-118759200I0J-250000D01*
G01*
X202502600Y-119434200D01*
G75*
G02*
X202252600Y-119684200I-250000J0D01*
G01*
X201302600Y-119684200D01*
G75*
G02*
X201052600Y-119434200I0J250000D01*
G01*
X201052600Y-118759200D01*
G75*
G02*
X201302600Y-118509200I250000J0D01*
G01*
G37*
G36*
G01*
X201302600Y-116434200D02*
X202252600Y-116434200D01*
G75*
G02*
X202502600Y-116684200I0J-250000D01*
G01*
X202502600Y-117359200D01*
G75*
G02*
X202252600Y-117609200I-250000J0D01*
G01*
X201302600Y-117609200D01*
G75*
G02*
X201052600Y-117359200I0J250000D01*
G01*
X201052600Y-116684200D01*
G75*
G02*
X201302600Y-116434200I250000J0D01*
G01*
G37*
%TD*%
%TO.C,C6*%
G36*
G01*
X196066999Y-118384200D02*
X196617001Y-118384200D01*
G75*
G02*
X196867000Y-118634199I0J-249999D01*
G01*
X196867000Y-119434201D01*
G75*
G02*
X196617001Y-119684200I-249999J0D01*
G01*
X196066999Y-119684200D01*
G75*
G02*
X195817000Y-119434201I0J249999D01*
G01*
X195817000Y-118634199D01*
G75*
G02*
X196066999Y-118384200I249999J0D01*
G01*
G37*
G36*
G01*
X196066999Y-116434200D02*
X196617001Y-116434200D01*
G75*
G02*
X196867000Y-116684199I0J-249999D01*
G01*
X196867000Y-117484201D01*
G75*
G02*
X196617001Y-117734200I-249999J0D01*
G01*
X196066999Y-117734200D01*
G75*
G02*
X195817000Y-117484201I0J249999D01*
G01*
X195817000Y-116684199D01*
G75*
G02*
X196066999Y-116434200I249999J0D01*
G01*
G37*
%TD*%
%TO.C,C7*%
G36*
G01*
X190340000Y-70035000D02*
X189390000Y-70035000D01*
G75*
G02*
X189140000Y-69785000I0J250000D01*
G01*
X189140000Y-69110000D01*
G75*
G02*
X189390000Y-68860000I250000J0D01*
G01*
X190340000Y-68860000D01*
G75*
G02*
X190590000Y-69110000I0J-250000D01*
G01*
X190590000Y-69785000D01*
G75*
G02*
X190340000Y-70035000I-250000J0D01*
G01*
G37*
G36*
G01*
X190340000Y-72110000D02*
X189390000Y-72110000D01*
G75*
G02*
X189140000Y-71860000I0J250000D01*
G01*
X189140000Y-71185000D01*
G75*
G02*
X189390000Y-70935000I250000J0D01*
G01*
X190340000Y-70935000D01*
G75*
G02*
X190590000Y-71185000I0J-250000D01*
G01*
X190590000Y-71860000D01*
G75*
G02*
X190340000Y-72110000I-250000J0D01*
G01*
G37*
%TD*%
%TO.C,C8*%
G36*
G01*
X174773001Y-70160000D02*
X174222999Y-70160000D01*
G75*
G02*
X173973000Y-69910001I0J249999D01*
G01*
X173973000Y-69109999D01*
G75*
G02*
X174222999Y-68860000I249999J0D01*
G01*
X174773001Y-68860000D01*
G75*
G02*
X175023000Y-69109999I0J-249999D01*
G01*
X175023000Y-69910001D01*
G75*
G02*
X174773001Y-70160000I-249999J0D01*
G01*
G37*
G36*
G01*
X174773001Y-72110000D02*
X174222999Y-72110000D01*
G75*
G02*
X173973000Y-71860001I0J249999D01*
G01*
X173973000Y-71059999D01*
G75*
G02*
X174222999Y-70810000I249999J0D01*
G01*
X174773001Y-70810000D01*
G75*
G02*
X175023000Y-71059999I0J-249999D01*
G01*
X175023000Y-71860001D01*
G75*
G02*
X174773001Y-72110000I-249999J0D01*
G01*
G37*
%TD*%
D16*
%TO.C,J1*%
X232930700Y-71120000D03*
G36*
G01*
X240430700Y-70120000D02*
X240430700Y-72120000D01*
G75*
G02*
X239680700Y-72870000I-750000J0D01*
G01*
X238180700Y-72870000D01*
G75*
G02*
X237430700Y-72120000I0J750000D01*
G01*
X237430700Y-70120000D01*
G75*
G02*
X238180700Y-69370000I750000J0D01*
G01*
X239680700Y-69370000D01*
G75*
G02*
X240430700Y-70120000I0J-750000D01*
G01*
G37*
G36*
G01*
X237680700Y-65545000D02*
X237680700Y-67295000D01*
G75*
G02*
X236805700Y-68170000I-875000J0D01*
G01*
X235055700Y-68170000D01*
G75*
G02*
X234180700Y-67295000I0J875000D01*
G01*
X234180700Y-65545000D01*
G75*
G02*
X235055700Y-64670000I875000J0D01*
G01*
X236805700Y-64670000D01*
G75*
G02*
X237680700Y-65545000I0J-875000D01*
G01*
G37*
%TD*%
D11*
%TO.C,J2*%
X199644000Y-128320800D03*
D10*
X202184000Y-128320800D03*
X204724000Y-128320800D03*
X207264000Y-128320800D03*
X209804000Y-128320800D03*
X212344000Y-128320800D03*
X214884000Y-128320800D03*
X217424000Y-128320800D03*
X219964000Y-128320800D03*
X222504000Y-128320800D03*
X225044000Y-128320800D03*
X227584000Y-128320800D03*
X230124000Y-128320800D03*
X232664000Y-128320800D03*
X235204000Y-128320800D03*
X237744000Y-128320800D03*
%TD*%
D11*
%TO.C,J3*%
X237591600Y-113106200D03*
D10*
X237591600Y-110566200D03*
X237591600Y-108026200D03*
X237591600Y-105486200D03*
X237591600Y-102946200D03*
X237591600Y-100406200D03*
X237591600Y-97866200D03*
X237591600Y-95326200D03*
%TD*%
%TO.C,J4*%
G36*
G01*
X166790000Y-128182200D02*
X166790000Y-126732200D01*
G75*
G02*
X167040000Y-126482200I250000J0D01*
G01*
X168240000Y-126482200D01*
G75*
G02*
X168490000Y-126732200I0J-250000D01*
G01*
X168490000Y-128182200D01*
G75*
G02*
X168240000Y-128432200I-250000J0D01*
G01*
X167040000Y-128432200D01*
G75*
G02*
X166790000Y-128182200I0J250000D01*
G01*
G37*
D17*
X170140000Y-127457200D03*
X172640000Y-127457200D03*
X175140000Y-127457200D03*
%TD*%
%TO.C,J5*%
G36*
G01*
X125642000Y-104373000D02*
X125642000Y-102923000D01*
G75*
G02*
X125892000Y-102673000I250000J0D01*
G01*
X127092000Y-102673000D01*
G75*
G02*
X127342000Y-102923000I0J-250000D01*
G01*
X127342000Y-104373000D01*
G75*
G02*
X127092000Y-104623000I-250000J0D01*
G01*
X125892000Y-104623000D01*
G75*
G02*
X125642000Y-104373000I0J250000D01*
G01*
G37*
X128992000Y-103648000D03*
X131492000Y-103648000D03*
X133992000Y-103648000D03*
X136492000Y-103648000D03*
X138992000Y-103648000D03*
%TD*%
%TO.C,J6*%
X138992000Y-91678000D03*
X136492000Y-91678000D03*
X133992000Y-91678000D03*
X131492000Y-91678000D03*
X128992000Y-91678000D03*
G36*
G01*
X125642000Y-92403000D02*
X125642000Y-90953000D01*
G75*
G02*
X125892000Y-90703000I250000J0D01*
G01*
X127092000Y-90703000D01*
G75*
G02*
X127342000Y-90953000I0J-250000D01*
G01*
X127342000Y-92403000D01*
G75*
G02*
X127092000Y-92653000I-250000J0D01*
G01*
X125892000Y-92653000D01*
G75*
G02*
X125642000Y-92403000I0J250000D01*
G01*
G37*
%TD*%
%TO.C,J7*%
G36*
G01*
X98718000Y-104373000D02*
X98718000Y-102923000D01*
G75*
G02*
X98968000Y-102673000I250000J0D01*
G01*
X100168000Y-102673000D01*
G75*
G02*
X100418000Y-102923000I0J-250000D01*
G01*
X100418000Y-104373000D01*
G75*
G02*
X100168000Y-104623000I-250000J0D01*
G01*
X98968000Y-104623000D01*
G75*
G02*
X98718000Y-104373000I0J250000D01*
G01*
G37*
X102068000Y-103648000D03*
X104568000Y-103648000D03*
X107068000Y-103648000D03*
X109568000Y-103648000D03*
X112068000Y-103648000D03*
%TD*%
%TO.C,J8*%
X112068000Y-91678000D03*
X109568000Y-91678000D03*
X107068000Y-91678000D03*
X104568000Y-91678000D03*
X102068000Y-91678000D03*
G36*
G01*
X98718000Y-92403000D02*
X98718000Y-90953000D01*
G75*
G02*
X98968000Y-90703000I250000J0D01*
G01*
X100168000Y-90703000D01*
G75*
G02*
X100418000Y-90953000I0J-250000D01*
G01*
X100418000Y-92403000D01*
G75*
G02*
X100168000Y-92653000I-250000J0D01*
G01*
X98968000Y-92653000D01*
G75*
G02*
X98718000Y-92403000I0J250000D01*
G01*
G37*
%TD*%
%TO.C,J9*%
G36*
G01*
X72302000Y-104373000D02*
X72302000Y-102923000D01*
G75*
G02*
X72552000Y-102673000I250000J0D01*
G01*
X73752000Y-102673000D01*
G75*
G02*
X74002000Y-102923000I0J-250000D01*
G01*
X74002000Y-104373000D01*
G75*
G02*
X73752000Y-104623000I-250000J0D01*
G01*
X72552000Y-104623000D01*
G75*
G02*
X72302000Y-104373000I0J250000D01*
G01*
G37*
X75652000Y-103648000D03*
X78152000Y-103648000D03*
X80652000Y-103648000D03*
X83152000Y-103648000D03*
X85652000Y-103648000D03*
%TD*%
%TO.C,J10*%
X85652000Y-91678000D03*
X83152000Y-91678000D03*
X80652000Y-91678000D03*
X78152000Y-91678000D03*
X75652000Y-91678000D03*
G36*
G01*
X72302000Y-92403000D02*
X72302000Y-90953000D01*
G75*
G02*
X72552000Y-90703000I250000J0D01*
G01*
X73752000Y-90703000D01*
G75*
G02*
X74002000Y-90953000I0J-250000D01*
G01*
X74002000Y-92403000D01*
G75*
G02*
X73752000Y-92653000I-250000J0D01*
G01*
X72552000Y-92653000D01*
G75*
G02*
X72302000Y-92403000I0J250000D01*
G01*
G37*
%TD*%
%TO.C,J11*%
G36*
G01*
X45378000Y-92403000D02*
X45378000Y-90953000D01*
G75*
G02*
X45628000Y-90703000I250000J0D01*
G01*
X46828000Y-90703000D01*
G75*
G02*
X47078000Y-90953000I0J-250000D01*
G01*
X47078000Y-92403000D01*
G75*
G02*
X46828000Y-92653000I-250000J0D01*
G01*
X45628000Y-92653000D01*
G75*
G02*
X45378000Y-92403000I0J250000D01*
G01*
G37*
X48728000Y-91678000D03*
X51228000Y-91678000D03*
X53728000Y-91678000D03*
X56228000Y-91678000D03*
X58728000Y-91678000D03*
%TD*%
%TO.C,J12*%
X58728000Y-103648000D03*
X56228000Y-103648000D03*
X53728000Y-103648000D03*
X51228000Y-103648000D03*
X48728000Y-103648000D03*
G36*
G01*
X45378000Y-104373000D02*
X45378000Y-102923000D01*
G75*
G02*
X45628000Y-102673000I250000J0D01*
G01*
X46828000Y-102673000D01*
G75*
G02*
X47078000Y-102923000I0J-250000D01*
G01*
X47078000Y-104373000D01*
G75*
G02*
X46828000Y-104623000I-250000J0D01*
G01*
X45628000Y-104623000D01*
G75*
G02*
X45378000Y-104373000I0J250000D01*
G01*
G37*
%TD*%
D18*
%TO.C,Q1*%
X237170000Y-120920000D03*
X235270000Y-120920000D03*
X236220000Y-122920000D03*
%TD*%
%TO.C,R1*%
G36*
G01*
X230708000Y-121190599D02*
X230708000Y-122090601D01*
G75*
G02*
X230458001Y-122340600I-249999J0D01*
G01*
X229757999Y-122340600D01*
G75*
G02*
X229508000Y-122090601I0J249999D01*
G01*
X229508000Y-121190599D01*
G75*
G02*
X229757999Y-120940600I249999J0D01*
G01*
X230458001Y-120940600D01*
G75*
G02*
X230708000Y-121190599I0J-249999D01*
G01*
G37*
G36*
G01*
X228708000Y-121190599D02*
X228708000Y-122090601D01*
G75*
G02*
X228458001Y-122340600I-249999J0D01*
G01*
X227757999Y-122340600D01*
G75*
G02*
X227508000Y-122090601I0J249999D01*
G01*
X227508000Y-121190599D01*
G75*
G02*
X227757999Y-120940600I249999J0D01*
G01*
X228458001Y-120940600D01*
G75*
G02*
X228708000Y-121190599I0J-249999D01*
G01*
G37*
%TD*%
%TO.C,R2*%
G36*
G01*
X214846999Y-94761000D02*
X215747001Y-94761000D01*
G75*
G02*
X215997000Y-95010999I0J-249999D01*
G01*
X215997000Y-95711001D01*
G75*
G02*
X215747001Y-95961000I-249999J0D01*
G01*
X214846999Y-95961000D01*
G75*
G02*
X214597000Y-95711001I0J249999D01*
G01*
X214597000Y-95010999D01*
G75*
G02*
X214846999Y-94761000I249999J0D01*
G01*
G37*
G36*
G01*
X214846999Y-92761000D02*
X215747001Y-92761000D01*
G75*
G02*
X215997000Y-93010999I0J-249999D01*
G01*
X215997000Y-93711001D01*
G75*
G02*
X215747001Y-93961000I-249999J0D01*
G01*
X214846999Y-93961000D01*
G75*
G02*
X214597000Y-93711001I0J249999D01*
G01*
X214597000Y-93010999D01*
G75*
G02*
X214846999Y-92761000I249999J0D01*
G01*
G37*
%TD*%
%TO.C,R3*%
G36*
G01*
X219926999Y-94761000D02*
X220827001Y-94761000D01*
G75*
G02*
X221077000Y-95010999I0J-249999D01*
G01*
X221077000Y-95711001D01*
G75*
G02*
X220827001Y-95961000I-249999J0D01*
G01*
X219926999Y-95961000D01*
G75*
G02*
X219677000Y-95711001I0J249999D01*
G01*
X219677000Y-95010999D01*
G75*
G02*
X219926999Y-94761000I249999J0D01*
G01*
G37*
G36*
G01*
X219926999Y-92761000D02*
X220827001Y-92761000D01*
G75*
G02*
X221077000Y-93010999I0J-249999D01*
G01*
X221077000Y-93711001D01*
G75*
G02*
X220827001Y-93961000I-249999J0D01*
G01*
X219926999Y-93961000D01*
G75*
G02*
X219677000Y-93711001I0J249999D01*
G01*
X219677000Y-93010999D01*
G75*
G02*
X219926999Y-92761000I249999J0D01*
G01*
G37*
%TD*%
%TO.C,R4*%
G36*
G01*
X225235599Y-92761000D02*
X226135601Y-92761000D01*
G75*
G02*
X226385600Y-93010999I0J-249999D01*
G01*
X226385600Y-93711001D01*
G75*
G02*
X226135601Y-93961000I-249999J0D01*
G01*
X225235599Y-93961000D01*
G75*
G02*
X224985600Y-93711001I0J249999D01*
G01*
X224985600Y-93010999D01*
G75*
G02*
X225235599Y-92761000I249999J0D01*
G01*
G37*
G36*
G01*
X225235599Y-94761000D02*
X226135601Y-94761000D01*
G75*
G02*
X226385600Y-95010999I0J-249999D01*
G01*
X226385600Y-95711001D01*
G75*
G02*
X226135601Y-95961000I-249999J0D01*
G01*
X225235599Y-95961000D01*
G75*
G02*
X224985600Y-95711001I0J249999D01*
G01*
X224985600Y-95010999D01*
G75*
G02*
X225235599Y-94761000I249999J0D01*
G01*
G37*
%TD*%
%TO.C,R5*%
G36*
G01*
X229985399Y-94761000D02*
X230885401Y-94761000D01*
G75*
G02*
X231135400Y-95010999I0J-249999D01*
G01*
X231135400Y-95711001D01*
G75*
G02*
X230885401Y-95961000I-249999J0D01*
G01*
X229985399Y-95961000D01*
G75*
G02*
X229735400Y-95711001I0J249999D01*
G01*
X229735400Y-95010999D01*
G75*
G02*
X229985399Y-94761000I249999J0D01*
G01*
G37*
G36*
G01*
X229985399Y-92761000D02*
X230885401Y-92761000D01*
G75*
G02*
X231135400Y-93010999I0J-249999D01*
G01*
X231135400Y-93711001D01*
G75*
G02*
X230885401Y-93961000I-249999J0D01*
G01*
X229985399Y-93961000D01*
G75*
G02*
X229735400Y-93711001I0J249999D01*
G01*
X229735400Y-93010999D01*
G75*
G02*
X229985399Y-92761000I249999J0D01*
G01*
G37*
%TD*%
%TO.C,R6*%
G36*
G01*
X221031000Y-122090601D02*
X221031000Y-121190599D01*
G75*
G02*
X221280999Y-120940600I249999J0D01*
G01*
X221981001Y-120940600D01*
G75*
G02*
X222231000Y-121190599I0J-249999D01*
G01*
X222231000Y-122090601D01*
G75*
G02*
X221981001Y-122340600I-249999J0D01*
G01*
X221280999Y-122340600D01*
G75*
G02*
X221031000Y-122090601I0J249999D01*
G01*
G37*
G36*
G01*
X223031000Y-122090601D02*
X223031000Y-121190599D01*
G75*
G02*
X223280999Y-120940600I249999J0D01*
G01*
X223981001Y-120940600D01*
G75*
G02*
X224231000Y-121190599I0J-249999D01*
G01*
X224231000Y-122090601D01*
G75*
G02*
X223981001Y-122340600I-249999J0D01*
G01*
X223280999Y-122340600D01*
G75*
G02*
X223031000Y-122090601I0J249999D01*
G01*
G37*
%TD*%
D19*
%TO.C,RV1*%
X189534800Y-127355600D03*
X186994800Y-127355600D03*
X184454800Y-127355600D03*
%TD*%
D20*
%TO.C,U2*%
X214630000Y-72390000D03*
D21*
X212090000Y-72390000D03*
X209550000Y-72390000D03*
%TD*%
D14*
%TO.C,U3*%
X125250600Y-111928400D03*
D15*
X140490600Y-119548400D03*
X127790600Y-111928400D03*
X137950600Y-119548400D03*
X130330600Y-111928400D03*
X135410600Y-119548400D03*
X132870600Y-111928400D03*
X132870600Y-119548400D03*
X135410600Y-111928400D03*
X130330600Y-119548400D03*
X137950600Y-111928400D03*
X127790600Y-119548400D03*
X140490600Y-111928400D03*
X125250600Y-119548400D03*
%TD*%
%TO.C,U4*%
X125250600Y-83286600D03*
X140490600Y-75666600D03*
X127790600Y-83286600D03*
X137950600Y-75666600D03*
X130330600Y-83286600D03*
X135410600Y-75666600D03*
X132870600Y-83286600D03*
X132870600Y-75666600D03*
X135410600Y-83286600D03*
X130330600Y-75666600D03*
X137950600Y-83286600D03*
X127790600Y-75666600D03*
X140490600Y-83286600D03*
D14*
X125250600Y-75666600D03*
%TD*%
D15*
%TO.C,U5*%
X98247200Y-119548400D03*
X113487200Y-111928400D03*
X100787200Y-119548400D03*
X110947200Y-111928400D03*
X103327200Y-119548400D03*
X108407200Y-111928400D03*
X105867200Y-119548400D03*
X105867200Y-111928400D03*
X108407200Y-119548400D03*
X103327200Y-111928400D03*
X110947200Y-119548400D03*
X100787200Y-111928400D03*
X113487200Y-119548400D03*
D14*
X98247200Y-111928400D03*
%TD*%
%TO.C,U6*%
X98247200Y-75666600D03*
D15*
X113487200Y-83286600D03*
X100787200Y-75666600D03*
X110947200Y-83286600D03*
X103327200Y-75666600D03*
X108407200Y-83286600D03*
X105867200Y-75666600D03*
X105867200Y-83286600D03*
X108407200Y-75666600D03*
X103327200Y-83286600D03*
X110947200Y-75666600D03*
X100787200Y-83286600D03*
X113487200Y-75666600D03*
X98247200Y-83286600D03*
%TD*%
D14*
%TO.C,U7*%
X71856600Y-111928400D03*
D15*
X87096600Y-119548400D03*
X74396600Y-111928400D03*
X84556600Y-119548400D03*
X76936600Y-111928400D03*
X82016600Y-119548400D03*
X79476600Y-111928400D03*
X79476600Y-119548400D03*
X82016600Y-111928400D03*
X76936600Y-119548400D03*
X84556600Y-111928400D03*
X74396600Y-119548400D03*
X87096600Y-111928400D03*
X71856600Y-119548400D03*
%TD*%
%TO.C,U8*%
X71551800Y-83286600D03*
X86791800Y-75666600D03*
X74091800Y-83286600D03*
X84251800Y-75666600D03*
X76631800Y-83286600D03*
X81711800Y-75666600D03*
X79171800Y-83286600D03*
X79171800Y-75666600D03*
X81711800Y-83286600D03*
X76631800Y-75666600D03*
X84251800Y-83286600D03*
X74091800Y-75666600D03*
X86791800Y-83286600D03*
D14*
X71551800Y-75666600D03*
%TD*%
D15*
%TO.C,U10*%
X44908800Y-119548400D03*
X60148800Y-111928400D03*
X47448800Y-119548400D03*
X57608800Y-111928400D03*
X49988800Y-119548400D03*
X55068800Y-111928400D03*
X52528800Y-119548400D03*
X52528800Y-111928400D03*
X55068800Y-119548400D03*
X49988800Y-111928400D03*
X57608800Y-119548400D03*
X47448800Y-111928400D03*
X60148800Y-119548400D03*
D14*
X44908800Y-111928400D03*
%TD*%
D21*
%TO.C,U11*%
X179705000Y-72390000D03*
X182245000Y-72390000D03*
D20*
X184785000Y-72390000D03*
%TD*%
M02*
