%TF.GenerationSoftware,KiCad,Pcbnew,(5.1.8)-1*%
%TF.CreationDate,2021-07-13T09:26:45+05:30*%
%TF.ProjectId,rfsm,7266736d-2e6b-4696-9361-645f70636258,rev?*%
%TF.SameCoordinates,Original*%
%TF.FileFunction,Legend,Bot*%
%TF.FilePolarity,Positive*%
%FSLAX46Y46*%
G04 Gerber Fmt 4.6, Leading zero omitted, Abs format (unit mm)*
G04 Created by KiCad (PCBNEW (5.1.8)-1) date 2021-07-13 09:26:45*
%MOMM*%
%LPD*%
G01*
G04 APERTURE LIST*
%ADD10C,0.200000*%
%ADD11C,0.120000*%
%ADD12C,0.150000*%
G04 APERTURE END LIST*
D10*
X134032380Y-99464761D02*
X133889523Y-99512380D01*
X133651428Y-99512380D01*
X133556190Y-99464761D01*
X133508571Y-99417142D01*
X133460952Y-99321904D01*
X133460952Y-99226666D01*
X133508571Y-99131428D01*
X133556190Y-99083809D01*
X133651428Y-99036190D01*
X133841904Y-98988571D01*
X133937142Y-98940952D01*
X133984761Y-98893333D01*
X134032380Y-98798095D01*
X134032380Y-98702857D01*
X133984761Y-98607619D01*
X133937142Y-98560000D01*
X133841904Y-98512380D01*
X133603809Y-98512380D01*
X133460952Y-98560000D01*
X133127619Y-98512380D02*
X132889523Y-99512380D01*
X132699047Y-98798095D01*
X132508571Y-99512380D01*
X132270476Y-98512380D01*
X131889523Y-99131428D02*
X131127619Y-99131428D01*
X130175238Y-98512380D02*
X130651428Y-98512380D01*
X130699047Y-98988571D01*
X130651428Y-98940952D01*
X130556190Y-98893333D01*
X130318095Y-98893333D01*
X130222857Y-98940952D01*
X130175238Y-98988571D01*
X130127619Y-99083809D01*
X130127619Y-99321904D01*
X130175238Y-99417142D01*
X130222857Y-99464761D01*
X130318095Y-99512380D01*
X130556190Y-99512380D01*
X130651428Y-99464761D01*
X130699047Y-99417142D01*
X107362380Y-99464761D02*
X107219523Y-99512380D01*
X106981428Y-99512380D01*
X106886190Y-99464761D01*
X106838571Y-99417142D01*
X106790952Y-99321904D01*
X106790952Y-99226666D01*
X106838571Y-99131428D01*
X106886190Y-99083809D01*
X106981428Y-99036190D01*
X107171904Y-98988571D01*
X107267142Y-98940952D01*
X107314761Y-98893333D01*
X107362380Y-98798095D01*
X107362380Y-98702857D01*
X107314761Y-98607619D01*
X107267142Y-98560000D01*
X107171904Y-98512380D01*
X106933809Y-98512380D01*
X106790952Y-98560000D01*
X106457619Y-98512380D02*
X106219523Y-99512380D01*
X106029047Y-98798095D01*
X105838571Y-99512380D01*
X105600476Y-98512380D01*
X105219523Y-99131428D02*
X104457619Y-99131428D01*
X103552857Y-98512380D02*
X103743333Y-98512380D01*
X103838571Y-98560000D01*
X103886190Y-98607619D01*
X103981428Y-98750476D01*
X104029047Y-98940952D01*
X104029047Y-99321904D01*
X103981428Y-99417142D01*
X103933809Y-99464761D01*
X103838571Y-99512380D01*
X103648095Y-99512380D01*
X103552857Y-99464761D01*
X103505238Y-99417142D01*
X103457619Y-99321904D01*
X103457619Y-99083809D01*
X103505238Y-98988571D01*
X103552857Y-98940952D01*
X103648095Y-98893333D01*
X103838571Y-98893333D01*
X103933809Y-98940952D01*
X103981428Y-98988571D01*
X104029047Y-99083809D01*
X79422380Y-99464761D02*
X79279523Y-99512380D01*
X79041428Y-99512380D01*
X78946190Y-99464761D01*
X78898571Y-99417142D01*
X78850952Y-99321904D01*
X78850952Y-99226666D01*
X78898571Y-99131428D01*
X78946190Y-99083809D01*
X79041428Y-99036190D01*
X79231904Y-98988571D01*
X79327142Y-98940952D01*
X79374761Y-98893333D01*
X79422380Y-98798095D01*
X79422380Y-98702857D01*
X79374761Y-98607619D01*
X79327142Y-98560000D01*
X79231904Y-98512380D01*
X78993809Y-98512380D01*
X78850952Y-98560000D01*
X78517619Y-98512380D02*
X78279523Y-99512380D01*
X78089047Y-98798095D01*
X77898571Y-99512380D01*
X77660476Y-98512380D01*
X77279523Y-99131428D02*
X76517619Y-99131428D01*
X76136666Y-98512380D02*
X75470000Y-98512380D01*
X75898571Y-99512380D01*
X134032380Y-95654761D02*
X133889523Y-95702380D01*
X133651428Y-95702380D01*
X133556190Y-95654761D01*
X133508571Y-95607142D01*
X133460952Y-95511904D01*
X133460952Y-95416666D01*
X133508571Y-95321428D01*
X133556190Y-95273809D01*
X133651428Y-95226190D01*
X133841904Y-95178571D01*
X133937142Y-95130952D01*
X133984761Y-95083333D01*
X134032380Y-94988095D01*
X134032380Y-94892857D01*
X133984761Y-94797619D01*
X133937142Y-94750000D01*
X133841904Y-94702380D01*
X133603809Y-94702380D01*
X133460952Y-94750000D01*
X133127619Y-94702380D02*
X132889523Y-95702380D01*
X132699047Y-94988095D01*
X132508571Y-95702380D01*
X132270476Y-94702380D01*
X131889523Y-95321428D02*
X131127619Y-95321428D01*
X130127619Y-95702380D02*
X130699047Y-95702380D01*
X130413333Y-95702380D02*
X130413333Y-94702380D01*
X130508571Y-94845238D01*
X130603809Y-94940476D01*
X130699047Y-94988095D01*
X107362380Y-95654761D02*
X107219523Y-95702380D01*
X106981428Y-95702380D01*
X106886190Y-95654761D01*
X106838571Y-95607142D01*
X106790952Y-95511904D01*
X106790952Y-95416666D01*
X106838571Y-95321428D01*
X106886190Y-95273809D01*
X106981428Y-95226190D01*
X107171904Y-95178571D01*
X107267142Y-95130952D01*
X107314761Y-95083333D01*
X107362380Y-94988095D01*
X107362380Y-94892857D01*
X107314761Y-94797619D01*
X107267142Y-94750000D01*
X107171904Y-94702380D01*
X106933809Y-94702380D01*
X106790952Y-94750000D01*
X106457619Y-94702380D02*
X106219523Y-95702380D01*
X106029047Y-94988095D01*
X105838571Y-95702380D01*
X105600476Y-94702380D01*
X105219523Y-95321428D02*
X104457619Y-95321428D01*
X104029047Y-94797619D02*
X103981428Y-94750000D01*
X103886190Y-94702380D01*
X103648095Y-94702380D01*
X103552857Y-94750000D01*
X103505238Y-94797619D01*
X103457619Y-94892857D01*
X103457619Y-94988095D01*
X103505238Y-95130952D01*
X104076666Y-95702380D01*
X103457619Y-95702380D01*
X79422380Y-95654761D02*
X79279523Y-95702380D01*
X79041428Y-95702380D01*
X78946190Y-95654761D01*
X78898571Y-95607142D01*
X78850952Y-95511904D01*
X78850952Y-95416666D01*
X78898571Y-95321428D01*
X78946190Y-95273809D01*
X79041428Y-95226190D01*
X79231904Y-95178571D01*
X79327142Y-95130952D01*
X79374761Y-95083333D01*
X79422380Y-94988095D01*
X79422380Y-94892857D01*
X79374761Y-94797619D01*
X79327142Y-94750000D01*
X79231904Y-94702380D01*
X78993809Y-94702380D01*
X78850952Y-94750000D01*
X78517619Y-94702380D02*
X78279523Y-95702380D01*
X78089047Y-94988095D01*
X77898571Y-95702380D01*
X77660476Y-94702380D01*
X77279523Y-95321428D02*
X76517619Y-95321428D01*
X76136666Y-94702380D02*
X75517619Y-94702380D01*
X75850952Y-95083333D01*
X75708095Y-95083333D01*
X75612857Y-95130952D01*
X75565238Y-95178571D01*
X75517619Y-95273809D01*
X75517619Y-95511904D01*
X75565238Y-95607142D01*
X75612857Y-95654761D01*
X75708095Y-95702380D01*
X75993809Y-95702380D01*
X76089047Y-95654761D01*
X76136666Y-95607142D01*
X54022380Y-99464761D02*
X53879523Y-99512380D01*
X53641428Y-99512380D01*
X53546190Y-99464761D01*
X53498571Y-99417142D01*
X53450952Y-99321904D01*
X53450952Y-99226666D01*
X53498571Y-99131428D01*
X53546190Y-99083809D01*
X53641428Y-99036190D01*
X53831904Y-98988571D01*
X53927142Y-98940952D01*
X53974761Y-98893333D01*
X54022380Y-98798095D01*
X54022380Y-98702857D01*
X53974761Y-98607619D01*
X53927142Y-98560000D01*
X53831904Y-98512380D01*
X53593809Y-98512380D01*
X53450952Y-98560000D01*
X53117619Y-98512380D02*
X52879523Y-99512380D01*
X52689047Y-98798095D01*
X52498571Y-99512380D01*
X52260476Y-98512380D01*
X51879523Y-99131428D02*
X51117619Y-99131428D01*
X50498571Y-98940952D02*
X50593809Y-98893333D01*
X50641428Y-98845714D01*
X50689047Y-98750476D01*
X50689047Y-98702857D01*
X50641428Y-98607619D01*
X50593809Y-98560000D01*
X50498571Y-98512380D01*
X50308095Y-98512380D01*
X50212857Y-98560000D01*
X50165238Y-98607619D01*
X50117619Y-98702857D01*
X50117619Y-98750476D01*
X50165238Y-98845714D01*
X50212857Y-98893333D01*
X50308095Y-98940952D01*
X50498571Y-98940952D01*
X50593809Y-98988571D01*
X50641428Y-99036190D01*
X50689047Y-99131428D01*
X50689047Y-99321904D01*
X50641428Y-99417142D01*
X50593809Y-99464761D01*
X50498571Y-99512380D01*
X50308095Y-99512380D01*
X50212857Y-99464761D01*
X50165238Y-99417142D01*
X50117619Y-99321904D01*
X50117619Y-99131428D01*
X50165238Y-99036190D01*
X50212857Y-98988571D01*
X50308095Y-98940952D01*
X54022380Y-95654761D02*
X53879523Y-95702380D01*
X53641428Y-95702380D01*
X53546190Y-95654761D01*
X53498571Y-95607142D01*
X53450952Y-95511904D01*
X53450952Y-95416666D01*
X53498571Y-95321428D01*
X53546190Y-95273809D01*
X53641428Y-95226190D01*
X53831904Y-95178571D01*
X53927142Y-95130952D01*
X53974761Y-95083333D01*
X54022380Y-94988095D01*
X54022380Y-94892857D01*
X53974761Y-94797619D01*
X53927142Y-94750000D01*
X53831904Y-94702380D01*
X53593809Y-94702380D01*
X53450952Y-94750000D01*
X53117619Y-94702380D02*
X52879523Y-95702380D01*
X52689047Y-94988095D01*
X52498571Y-95702380D01*
X52260476Y-94702380D01*
X51879523Y-95321428D02*
X51117619Y-95321428D01*
X50212857Y-95035714D02*
X50212857Y-95702380D01*
X50450952Y-94654761D02*
X50689047Y-95369047D01*
X50070000Y-95369047D01*
D11*
%TO.C,C15*%
X40486000Y-79000048D02*
X40486000Y-79522552D01*
X39016000Y-79000048D02*
X39016000Y-79522552D01*
%TO.C,C16*%
X39016000Y-116034452D02*
X39016000Y-115511948D01*
X40486000Y-116034452D02*
X40486000Y-115511948D01*
%TO.C,C14*%
X67410000Y-79000048D02*
X67410000Y-79522552D01*
X65940000Y-79000048D02*
X65940000Y-79522552D01*
%TO.C,C13*%
X66117800Y-116034452D02*
X66117800Y-115511948D01*
X67587800Y-116034452D02*
X67587800Y-115511948D01*
%TO.C,C12*%
X94359400Y-79000048D02*
X94359400Y-79522552D01*
X92889400Y-79000048D02*
X92889400Y-79522552D01*
%TO.C,C11*%
X92889400Y-116034452D02*
X92889400Y-115511948D01*
X94359400Y-116034452D02*
X94359400Y-115511948D01*
%TO.C,C10*%
X120800800Y-79000048D02*
X120800800Y-79522552D01*
X119330800Y-79000048D02*
X119330800Y-79522552D01*
%TO.C,C9*%
X119750000Y-116034452D02*
X119750000Y-115511948D01*
X121220000Y-116034452D02*
X121220000Y-115511948D01*
%TO.C,U9*%
X43518800Y-84616600D02*
X43518800Y-74336600D01*
X61538800Y-84616600D02*
X43518800Y-84616600D01*
X61538800Y-74336600D02*
X61538800Y-84616600D01*
X43518800Y-74336600D02*
X61538800Y-74336600D01*
X43578800Y-82126600D02*
X43578800Y-80476600D01*
X61478800Y-82126600D02*
X43578800Y-82126600D01*
X61478800Y-76826600D02*
X61478800Y-82126600D01*
X43578800Y-76826600D02*
X61478800Y-76826600D01*
X43578800Y-78476600D02*
X43578800Y-76826600D01*
X43578800Y-80476600D02*
G75*
G03*
X43578800Y-78476600I0J1000000D01*
G01*
%TO.C,J2*%
X198314000Y-128320800D02*
X198314000Y-129650800D01*
X198314000Y-129650800D02*
X199644000Y-129650800D01*
X200914000Y-129650800D02*
X239074000Y-129650800D01*
X239074000Y-126990800D02*
X239074000Y-129650800D01*
X200914000Y-126990800D02*
X239074000Y-126990800D01*
X200914000Y-126990800D02*
X200914000Y-129650800D01*
%TO.C,J5*%
X123582000Y-101038000D02*
X126082000Y-101038000D01*
X123582000Y-103538000D02*
X123582000Y-101038000D01*
X140602000Y-102838000D02*
X140602000Y-101338000D01*
X141602000Y-102838000D02*
X140602000Y-102838000D01*
X124882000Y-102838000D02*
X124882000Y-101338000D01*
X123882000Y-102838000D02*
X124882000Y-102838000D01*
X141102000Y-103648000D02*
X141602000Y-103648000D01*
X141102000Y-104858000D02*
X141102000Y-103648000D01*
X124382000Y-104858000D02*
X141102000Y-104858000D01*
X124382000Y-103648000D02*
X124382000Y-104858000D01*
X123882000Y-103648000D02*
X124382000Y-103648000D01*
X141602000Y-105358000D02*
X123882000Y-105358000D01*
X141602000Y-101338000D02*
X141602000Y-105358000D01*
X123882000Y-101338000D02*
X141602000Y-101338000D01*
X123882000Y-105358000D02*
X123882000Y-101338000D01*
%TO.C,J6*%
X123882000Y-93388000D02*
X123882000Y-89368000D01*
X123882000Y-89368000D02*
X141602000Y-89368000D01*
X141602000Y-89368000D02*
X141602000Y-93388000D01*
X141602000Y-93388000D02*
X123882000Y-93388000D01*
X123882000Y-91678000D02*
X124382000Y-91678000D01*
X124382000Y-91678000D02*
X124382000Y-92888000D01*
X124382000Y-92888000D02*
X141102000Y-92888000D01*
X141102000Y-92888000D02*
X141102000Y-91678000D01*
X141102000Y-91678000D02*
X141602000Y-91678000D01*
X123882000Y-90868000D02*
X124882000Y-90868000D01*
X124882000Y-90868000D02*
X124882000Y-89368000D01*
X141602000Y-90868000D02*
X140602000Y-90868000D01*
X140602000Y-90868000D02*
X140602000Y-89368000D01*
X123582000Y-91568000D02*
X123582000Y-89068000D01*
X123582000Y-89068000D02*
X126082000Y-89068000D01*
%TO.C,J7*%
X96658000Y-101038000D02*
X99158000Y-101038000D01*
X96658000Y-103538000D02*
X96658000Y-101038000D01*
X113678000Y-102838000D02*
X113678000Y-101338000D01*
X114678000Y-102838000D02*
X113678000Y-102838000D01*
X97958000Y-102838000D02*
X97958000Y-101338000D01*
X96958000Y-102838000D02*
X97958000Y-102838000D01*
X114178000Y-103648000D02*
X114678000Y-103648000D01*
X114178000Y-104858000D02*
X114178000Y-103648000D01*
X97458000Y-104858000D02*
X114178000Y-104858000D01*
X97458000Y-103648000D02*
X97458000Y-104858000D01*
X96958000Y-103648000D02*
X97458000Y-103648000D01*
X114678000Y-105358000D02*
X96958000Y-105358000D01*
X114678000Y-101338000D02*
X114678000Y-105358000D01*
X96958000Y-101338000D02*
X114678000Y-101338000D01*
X96958000Y-105358000D02*
X96958000Y-101338000D01*
%TO.C,J8*%
X96958000Y-93388000D02*
X96958000Y-89368000D01*
X96958000Y-89368000D02*
X114678000Y-89368000D01*
X114678000Y-89368000D02*
X114678000Y-93388000D01*
X114678000Y-93388000D02*
X96958000Y-93388000D01*
X96958000Y-91678000D02*
X97458000Y-91678000D01*
X97458000Y-91678000D02*
X97458000Y-92888000D01*
X97458000Y-92888000D02*
X114178000Y-92888000D01*
X114178000Y-92888000D02*
X114178000Y-91678000D01*
X114178000Y-91678000D02*
X114678000Y-91678000D01*
X96958000Y-90868000D02*
X97958000Y-90868000D01*
X97958000Y-90868000D02*
X97958000Y-89368000D01*
X114678000Y-90868000D02*
X113678000Y-90868000D01*
X113678000Y-90868000D02*
X113678000Y-89368000D01*
X96658000Y-91568000D02*
X96658000Y-89068000D01*
X96658000Y-89068000D02*
X99158000Y-89068000D01*
%TO.C,J9*%
X70242000Y-101038000D02*
X72742000Y-101038000D01*
X70242000Y-103538000D02*
X70242000Y-101038000D01*
X87262000Y-102838000D02*
X87262000Y-101338000D01*
X88262000Y-102838000D02*
X87262000Y-102838000D01*
X71542000Y-102838000D02*
X71542000Y-101338000D01*
X70542000Y-102838000D02*
X71542000Y-102838000D01*
X87762000Y-103648000D02*
X88262000Y-103648000D01*
X87762000Y-104858000D02*
X87762000Y-103648000D01*
X71042000Y-104858000D02*
X87762000Y-104858000D01*
X71042000Y-103648000D02*
X71042000Y-104858000D01*
X70542000Y-103648000D02*
X71042000Y-103648000D01*
X88262000Y-105358000D02*
X70542000Y-105358000D01*
X88262000Y-101338000D02*
X88262000Y-105358000D01*
X70542000Y-101338000D02*
X88262000Y-101338000D01*
X70542000Y-105358000D02*
X70542000Y-101338000D01*
%TO.C,J10*%
X70542000Y-93388000D02*
X70542000Y-89368000D01*
X70542000Y-89368000D02*
X88262000Y-89368000D01*
X88262000Y-89368000D02*
X88262000Y-93388000D01*
X88262000Y-93388000D02*
X70542000Y-93388000D01*
X70542000Y-91678000D02*
X71042000Y-91678000D01*
X71042000Y-91678000D02*
X71042000Y-92888000D01*
X71042000Y-92888000D02*
X87762000Y-92888000D01*
X87762000Y-92888000D02*
X87762000Y-91678000D01*
X87762000Y-91678000D02*
X88262000Y-91678000D01*
X70542000Y-90868000D02*
X71542000Y-90868000D01*
X71542000Y-90868000D02*
X71542000Y-89368000D01*
X88262000Y-90868000D02*
X87262000Y-90868000D01*
X87262000Y-90868000D02*
X87262000Y-89368000D01*
X70242000Y-91568000D02*
X70242000Y-89068000D01*
X70242000Y-89068000D02*
X72742000Y-89068000D01*
%TO.C,J11*%
X43318000Y-89068000D02*
X45818000Y-89068000D01*
X43318000Y-91568000D02*
X43318000Y-89068000D01*
X60338000Y-90868000D02*
X60338000Y-89368000D01*
X61338000Y-90868000D02*
X60338000Y-90868000D01*
X44618000Y-90868000D02*
X44618000Y-89368000D01*
X43618000Y-90868000D02*
X44618000Y-90868000D01*
X60838000Y-91678000D02*
X61338000Y-91678000D01*
X60838000Y-92888000D02*
X60838000Y-91678000D01*
X44118000Y-92888000D02*
X60838000Y-92888000D01*
X44118000Y-91678000D02*
X44118000Y-92888000D01*
X43618000Y-91678000D02*
X44118000Y-91678000D01*
X61338000Y-93388000D02*
X43618000Y-93388000D01*
X61338000Y-89368000D02*
X61338000Y-93388000D01*
X43618000Y-89368000D02*
X61338000Y-89368000D01*
X43618000Y-93388000D02*
X43618000Y-89368000D01*
%TO.C,J12*%
X43618000Y-105358000D02*
X43618000Y-101338000D01*
X43618000Y-101338000D02*
X61338000Y-101338000D01*
X61338000Y-101338000D02*
X61338000Y-105358000D01*
X61338000Y-105358000D02*
X43618000Y-105358000D01*
X43618000Y-103648000D02*
X44118000Y-103648000D01*
X44118000Y-103648000D02*
X44118000Y-104858000D01*
X44118000Y-104858000D02*
X60838000Y-104858000D01*
X60838000Y-104858000D02*
X60838000Y-103648000D01*
X60838000Y-103648000D02*
X61338000Y-103648000D01*
X43618000Y-102838000D02*
X44618000Y-102838000D01*
X44618000Y-102838000D02*
X44618000Y-101338000D01*
X61338000Y-102838000D02*
X60338000Y-102838000D01*
X60338000Y-102838000D02*
X60338000Y-101338000D01*
X43318000Y-103538000D02*
X43318000Y-101038000D01*
X43318000Y-101038000D02*
X45818000Y-101038000D01*
%TO.C,U3*%
X123860600Y-120878400D02*
X123860600Y-110598400D01*
X141880600Y-120878400D02*
X123860600Y-120878400D01*
X141880600Y-110598400D02*
X141880600Y-120878400D01*
X123860600Y-110598400D02*
X141880600Y-110598400D01*
X123920600Y-118388400D02*
X123920600Y-116738400D01*
X141820600Y-118388400D02*
X123920600Y-118388400D01*
X141820600Y-113088400D02*
X141820600Y-118388400D01*
X123920600Y-113088400D02*
X141820600Y-113088400D01*
X123920600Y-114738400D02*
X123920600Y-113088400D01*
X123920600Y-116738400D02*
G75*
G03*
X123920600Y-114738400I0J1000000D01*
G01*
%TO.C,U4*%
X123920600Y-78476600D02*
X123920600Y-76826600D01*
X123920600Y-76826600D02*
X141820600Y-76826600D01*
X141820600Y-76826600D02*
X141820600Y-82126600D01*
X141820600Y-82126600D02*
X123920600Y-82126600D01*
X123920600Y-82126600D02*
X123920600Y-80476600D01*
X123860600Y-74336600D02*
X141880600Y-74336600D01*
X141880600Y-74336600D02*
X141880600Y-84616600D01*
X141880600Y-84616600D02*
X123860600Y-84616600D01*
X123860600Y-84616600D02*
X123860600Y-74336600D01*
X123920600Y-80476600D02*
G75*
G03*
X123920600Y-78476600I0J1000000D01*
G01*
%TO.C,U5*%
X96917200Y-114738400D02*
X96917200Y-113088400D01*
X96917200Y-113088400D02*
X114817200Y-113088400D01*
X114817200Y-113088400D02*
X114817200Y-118388400D01*
X114817200Y-118388400D02*
X96917200Y-118388400D01*
X96917200Y-118388400D02*
X96917200Y-116738400D01*
X96857200Y-110598400D02*
X114877200Y-110598400D01*
X114877200Y-110598400D02*
X114877200Y-120878400D01*
X114877200Y-120878400D02*
X96857200Y-120878400D01*
X96857200Y-120878400D02*
X96857200Y-110598400D01*
X96917200Y-116738400D02*
G75*
G03*
X96917200Y-114738400I0J1000000D01*
G01*
%TO.C,U6*%
X96857200Y-84616600D02*
X96857200Y-74336600D01*
X114877200Y-84616600D02*
X96857200Y-84616600D01*
X114877200Y-74336600D02*
X114877200Y-84616600D01*
X96857200Y-74336600D02*
X114877200Y-74336600D01*
X96917200Y-82126600D02*
X96917200Y-80476600D01*
X114817200Y-82126600D02*
X96917200Y-82126600D01*
X114817200Y-76826600D02*
X114817200Y-82126600D01*
X96917200Y-76826600D02*
X114817200Y-76826600D01*
X96917200Y-78476600D02*
X96917200Y-76826600D01*
X96917200Y-80476600D02*
G75*
G03*
X96917200Y-78476600I0J1000000D01*
G01*
%TO.C,U7*%
X70466600Y-120878400D02*
X70466600Y-110598400D01*
X88486600Y-120878400D02*
X70466600Y-120878400D01*
X88486600Y-110598400D02*
X88486600Y-120878400D01*
X70466600Y-110598400D02*
X88486600Y-110598400D01*
X70526600Y-118388400D02*
X70526600Y-116738400D01*
X88426600Y-118388400D02*
X70526600Y-118388400D01*
X88426600Y-113088400D02*
X88426600Y-118388400D01*
X70526600Y-113088400D02*
X88426600Y-113088400D01*
X70526600Y-114738400D02*
X70526600Y-113088400D01*
X70526600Y-116738400D02*
G75*
G03*
X70526600Y-114738400I0J1000000D01*
G01*
%TO.C,U8*%
X70221800Y-78476600D02*
X70221800Y-76826600D01*
X70221800Y-76826600D02*
X88121800Y-76826600D01*
X88121800Y-76826600D02*
X88121800Y-82126600D01*
X88121800Y-82126600D02*
X70221800Y-82126600D01*
X70221800Y-82126600D02*
X70221800Y-80476600D01*
X70161800Y-74336600D02*
X88181800Y-74336600D01*
X88181800Y-74336600D02*
X88181800Y-84616600D01*
X88181800Y-84616600D02*
X70161800Y-84616600D01*
X70161800Y-84616600D02*
X70161800Y-74336600D01*
X70221800Y-80476600D02*
G75*
G03*
X70221800Y-78476600I0J1000000D01*
G01*
%TO.C,U10*%
X43578800Y-114738400D02*
X43578800Y-113088400D01*
X43578800Y-113088400D02*
X61478800Y-113088400D01*
X61478800Y-113088400D02*
X61478800Y-118388400D01*
X61478800Y-118388400D02*
X43578800Y-118388400D01*
X43578800Y-118388400D02*
X43578800Y-116738400D01*
X43518800Y-110598400D02*
X61538800Y-110598400D01*
X61538800Y-110598400D02*
X61538800Y-120878400D01*
X61538800Y-120878400D02*
X43518800Y-120878400D01*
X43518800Y-120878400D02*
X43518800Y-110598400D01*
X43578800Y-116738400D02*
G75*
G03*
X43578800Y-114738400I0J1000000D01*
G01*
%TO.C,C15*%
D12*
X38428142Y-78618442D02*
X38475761Y-78570823D01*
X38523380Y-78427966D01*
X38523380Y-78332728D01*
X38475761Y-78189871D01*
X38380523Y-78094633D01*
X38285285Y-78047014D01*
X38094809Y-77999395D01*
X37951952Y-77999395D01*
X37761476Y-78047014D01*
X37666238Y-78094633D01*
X37571000Y-78189871D01*
X37523380Y-78332728D01*
X37523380Y-78427966D01*
X37571000Y-78570823D01*
X37618619Y-78618442D01*
X38523380Y-79570823D02*
X38523380Y-78999395D01*
X38523380Y-79285109D02*
X37523380Y-79285109D01*
X37666238Y-79189871D01*
X37761476Y-79094633D01*
X37809095Y-78999395D01*
X37523380Y-80475585D02*
X37523380Y-79999395D01*
X37999571Y-79951776D01*
X37951952Y-79999395D01*
X37904333Y-80094633D01*
X37904333Y-80332728D01*
X37951952Y-80427966D01*
X37999571Y-80475585D01*
X38094809Y-80523204D01*
X38332904Y-80523204D01*
X38428142Y-80475585D01*
X38475761Y-80427966D01*
X38523380Y-80332728D01*
X38523380Y-80094633D01*
X38475761Y-79999395D01*
X38428142Y-79951776D01*
%TO.C,C16*%
X41788142Y-115130342D02*
X41835761Y-115082723D01*
X41883380Y-114939866D01*
X41883380Y-114844628D01*
X41835761Y-114701771D01*
X41740523Y-114606533D01*
X41645285Y-114558914D01*
X41454809Y-114511295D01*
X41311952Y-114511295D01*
X41121476Y-114558914D01*
X41026238Y-114606533D01*
X40931000Y-114701771D01*
X40883380Y-114844628D01*
X40883380Y-114939866D01*
X40931000Y-115082723D01*
X40978619Y-115130342D01*
X41883380Y-116082723D02*
X41883380Y-115511295D01*
X41883380Y-115797009D02*
X40883380Y-115797009D01*
X41026238Y-115701771D01*
X41121476Y-115606533D01*
X41169095Y-115511295D01*
X40883380Y-116939866D02*
X40883380Y-116749390D01*
X40931000Y-116654152D01*
X40978619Y-116606533D01*
X41121476Y-116511295D01*
X41311952Y-116463676D01*
X41692904Y-116463676D01*
X41788142Y-116511295D01*
X41835761Y-116558914D01*
X41883380Y-116654152D01*
X41883380Y-116844628D01*
X41835761Y-116939866D01*
X41788142Y-116987485D01*
X41692904Y-117035104D01*
X41454809Y-117035104D01*
X41359571Y-116987485D01*
X41311952Y-116939866D01*
X41264333Y-116844628D01*
X41264333Y-116654152D01*
X41311952Y-116558914D01*
X41359571Y-116511295D01*
X41454809Y-116463676D01*
%TO.C,C14*%
X65352142Y-78618442D02*
X65399761Y-78570823D01*
X65447380Y-78427966D01*
X65447380Y-78332728D01*
X65399761Y-78189871D01*
X65304523Y-78094633D01*
X65209285Y-78047014D01*
X65018809Y-77999395D01*
X64875952Y-77999395D01*
X64685476Y-78047014D01*
X64590238Y-78094633D01*
X64495000Y-78189871D01*
X64447380Y-78332728D01*
X64447380Y-78427966D01*
X64495000Y-78570823D01*
X64542619Y-78618442D01*
X65447380Y-79570823D02*
X65447380Y-78999395D01*
X65447380Y-79285109D02*
X64447380Y-79285109D01*
X64590238Y-79189871D01*
X64685476Y-79094633D01*
X64733095Y-78999395D01*
X64780714Y-80427966D02*
X65447380Y-80427966D01*
X64399761Y-80189871D02*
X65114047Y-79951776D01*
X65114047Y-80570823D01*
%TO.C,C13*%
X68889942Y-115130342D02*
X68937561Y-115082723D01*
X68985180Y-114939866D01*
X68985180Y-114844628D01*
X68937561Y-114701771D01*
X68842323Y-114606533D01*
X68747085Y-114558914D01*
X68556609Y-114511295D01*
X68413752Y-114511295D01*
X68223276Y-114558914D01*
X68128038Y-114606533D01*
X68032800Y-114701771D01*
X67985180Y-114844628D01*
X67985180Y-114939866D01*
X68032800Y-115082723D01*
X68080419Y-115130342D01*
X68985180Y-116082723D02*
X68985180Y-115511295D01*
X68985180Y-115797009D02*
X67985180Y-115797009D01*
X68128038Y-115701771D01*
X68223276Y-115606533D01*
X68270895Y-115511295D01*
X67985180Y-116416057D02*
X67985180Y-117035104D01*
X68366133Y-116701771D01*
X68366133Y-116844628D01*
X68413752Y-116939866D01*
X68461371Y-116987485D01*
X68556609Y-117035104D01*
X68794704Y-117035104D01*
X68889942Y-116987485D01*
X68937561Y-116939866D01*
X68985180Y-116844628D01*
X68985180Y-116558914D01*
X68937561Y-116463676D01*
X68889942Y-116416057D01*
%TO.C,C12*%
X92301542Y-78618442D02*
X92349161Y-78570823D01*
X92396780Y-78427966D01*
X92396780Y-78332728D01*
X92349161Y-78189871D01*
X92253923Y-78094633D01*
X92158685Y-78047014D01*
X91968209Y-77999395D01*
X91825352Y-77999395D01*
X91634876Y-78047014D01*
X91539638Y-78094633D01*
X91444400Y-78189871D01*
X91396780Y-78332728D01*
X91396780Y-78427966D01*
X91444400Y-78570823D01*
X91492019Y-78618442D01*
X92396780Y-79570823D02*
X92396780Y-78999395D01*
X92396780Y-79285109D02*
X91396780Y-79285109D01*
X91539638Y-79189871D01*
X91634876Y-79094633D01*
X91682495Y-78999395D01*
X91492019Y-79951776D02*
X91444400Y-79999395D01*
X91396780Y-80094633D01*
X91396780Y-80332728D01*
X91444400Y-80427966D01*
X91492019Y-80475585D01*
X91587257Y-80523204D01*
X91682495Y-80523204D01*
X91825352Y-80475585D01*
X92396780Y-79904157D01*
X92396780Y-80523204D01*
%TO.C,C11*%
X95835742Y-115012742D02*
X95883361Y-114965123D01*
X95930980Y-114822266D01*
X95930980Y-114727028D01*
X95883361Y-114584171D01*
X95788123Y-114488933D01*
X95692885Y-114441314D01*
X95502409Y-114393695D01*
X95359552Y-114393695D01*
X95169076Y-114441314D01*
X95073838Y-114488933D01*
X94978600Y-114584171D01*
X94930980Y-114727028D01*
X94930980Y-114822266D01*
X94978600Y-114965123D01*
X95026219Y-115012742D01*
X95930980Y-115965123D02*
X95930980Y-115393695D01*
X95930980Y-115679409D02*
X94930980Y-115679409D01*
X95073838Y-115584171D01*
X95169076Y-115488933D01*
X95216695Y-115393695D01*
X95930980Y-116917504D02*
X95930980Y-116346076D01*
X95930980Y-116631790D02*
X94930980Y-116631790D01*
X95073838Y-116536552D01*
X95169076Y-116441314D01*
X95216695Y-116346076D01*
%TO.C,C10*%
X118742942Y-78618442D02*
X118790561Y-78570823D01*
X118838180Y-78427966D01*
X118838180Y-78332728D01*
X118790561Y-78189871D01*
X118695323Y-78094633D01*
X118600085Y-78047014D01*
X118409609Y-77999395D01*
X118266752Y-77999395D01*
X118076276Y-78047014D01*
X117981038Y-78094633D01*
X117885800Y-78189871D01*
X117838180Y-78332728D01*
X117838180Y-78427966D01*
X117885800Y-78570823D01*
X117933419Y-78618442D01*
X118838180Y-79570823D02*
X118838180Y-78999395D01*
X118838180Y-79285109D02*
X117838180Y-79285109D01*
X117981038Y-79189871D01*
X118076276Y-79094633D01*
X118123895Y-78999395D01*
X117838180Y-80189871D02*
X117838180Y-80285109D01*
X117885800Y-80380347D01*
X117933419Y-80427966D01*
X118028657Y-80475585D01*
X118219133Y-80523204D01*
X118457228Y-80523204D01*
X118647704Y-80475585D01*
X118742942Y-80427966D01*
X118790561Y-80380347D01*
X118838180Y-80285109D01*
X118838180Y-80189871D01*
X118790561Y-80094633D01*
X118742942Y-80047014D01*
X118647704Y-79999395D01*
X118457228Y-79951776D01*
X118219133Y-79951776D01*
X118028657Y-79999395D01*
X117933419Y-80047014D01*
X117885800Y-80094633D01*
X117838180Y-80189871D01*
%TO.C,C9*%
X122522142Y-115606533D02*
X122569761Y-115558914D01*
X122617380Y-115416057D01*
X122617380Y-115320819D01*
X122569761Y-115177961D01*
X122474523Y-115082723D01*
X122379285Y-115035104D01*
X122188809Y-114987485D01*
X122045952Y-114987485D01*
X121855476Y-115035104D01*
X121760238Y-115082723D01*
X121665000Y-115177961D01*
X121617380Y-115320819D01*
X121617380Y-115416057D01*
X121665000Y-115558914D01*
X121712619Y-115606533D01*
X122617380Y-116082723D02*
X122617380Y-116273200D01*
X122569761Y-116368438D01*
X122522142Y-116416057D01*
X122379285Y-116511295D01*
X122188809Y-116558914D01*
X121807857Y-116558914D01*
X121712619Y-116511295D01*
X121665000Y-116463676D01*
X121617380Y-116368438D01*
X121617380Y-116177961D01*
X121665000Y-116082723D01*
X121712619Y-116035104D01*
X121807857Y-115987485D01*
X122045952Y-115987485D01*
X122141190Y-116035104D01*
X122188809Y-116082723D01*
X122236428Y-116177961D01*
X122236428Y-116368438D01*
X122188809Y-116463676D01*
X122141190Y-116511295D01*
X122045952Y-116558914D01*
%TO.C,U9*%
X46661304Y-85500980D02*
X46661304Y-86310504D01*
X46613685Y-86405742D01*
X46566066Y-86453361D01*
X46470828Y-86500980D01*
X46280352Y-86500980D01*
X46185114Y-86453361D01*
X46137495Y-86405742D01*
X46089876Y-86310504D01*
X46089876Y-85500980D01*
X45566066Y-86500980D02*
X45375590Y-86500980D01*
X45280352Y-86453361D01*
X45232733Y-86405742D01*
X45137495Y-86262885D01*
X45089876Y-86072409D01*
X45089876Y-85691457D01*
X45137495Y-85596219D01*
X45185114Y-85548600D01*
X45280352Y-85500980D01*
X45470828Y-85500980D01*
X45566066Y-85548600D01*
X45613685Y-85596219D01*
X45661304Y-85691457D01*
X45661304Y-85929552D01*
X45613685Y-86024790D01*
X45566066Y-86072409D01*
X45470828Y-86120028D01*
X45280352Y-86120028D01*
X45185114Y-86072409D01*
X45137495Y-86024790D01*
X45089876Y-85929552D01*
%TO.C,J2*%
X196326380Y-127987466D02*
X197040666Y-127987466D01*
X197183523Y-127939847D01*
X197278761Y-127844609D01*
X197326380Y-127701752D01*
X197326380Y-127606514D01*
X196421619Y-128416038D02*
X196374000Y-128463657D01*
X196326380Y-128558895D01*
X196326380Y-128796990D01*
X196374000Y-128892228D01*
X196421619Y-128939847D01*
X196516857Y-128987466D01*
X196612095Y-128987466D01*
X196754952Y-128939847D01*
X197326380Y-128368419D01*
X197326380Y-128987466D01*
%TO.C,J5*%
X133075333Y-105900380D02*
X133075333Y-106614666D01*
X133122952Y-106757523D01*
X133218190Y-106852761D01*
X133361047Y-106900380D01*
X133456285Y-106900380D01*
X132122952Y-105900380D02*
X132599142Y-105900380D01*
X132646761Y-106376571D01*
X132599142Y-106328952D01*
X132503904Y-106281333D01*
X132265809Y-106281333D01*
X132170571Y-106328952D01*
X132122952Y-106376571D01*
X132075333Y-106471809D01*
X132075333Y-106709904D01*
X132122952Y-106805142D01*
X132170571Y-106852761D01*
X132265809Y-106900380D01*
X132503904Y-106900380D01*
X132599142Y-106852761D01*
X132646761Y-106805142D01*
%TO.C,J6*%
X133075333Y-87082380D02*
X133075333Y-87796666D01*
X133122952Y-87939523D01*
X133218190Y-88034761D01*
X133361047Y-88082380D01*
X133456285Y-88082380D01*
X132170571Y-87082380D02*
X132361047Y-87082380D01*
X132456285Y-87130000D01*
X132503904Y-87177619D01*
X132599142Y-87320476D01*
X132646761Y-87510952D01*
X132646761Y-87891904D01*
X132599142Y-87987142D01*
X132551523Y-88034761D01*
X132456285Y-88082380D01*
X132265809Y-88082380D01*
X132170571Y-88034761D01*
X132122952Y-87987142D01*
X132075333Y-87891904D01*
X132075333Y-87653809D01*
X132122952Y-87558571D01*
X132170571Y-87510952D01*
X132265809Y-87463333D01*
X132456285Y-87463333D01*
X132551523Y-87510952D01*
X132599142Y-87558571D01*
X132646761Y-87653809D01*
%TO.C,J7*%
X106151333Y-105900380D02*
X106151333Y-106614666D01*
X106198952Y-106757523D01*
X106294190Y-106852761D01*
X106437047Y-106900380D01*
X106532285Y-106900380D01*
X105770380Y-105900380D02*
X105103714Y-105900380D01*
X105532285Y-106900380D01*
%TO.C,J8*%
X106151333Y-87082380D02*
X106151333Y-87796666D01*
X106198952Y-87939523D01*
X106294190Y-88034761D01*
X106437047Y-88082380D01*
X106532285Y-88082380D01*
X105532285Y-87510952D02*
X105627523Y-87463333D01*
X105675142Y-87415714D01*
X105722761Y-87320476D01*
X105722761Y-87272857D01*
X105675142Y-87177619D01*
X105627523Y-87130000D01*
X105532285Y-87082380D01*
X105341809Y-87082380D01*
X105246571Y-87130000D01*
X105198952Y-87177619D01*
X105151333Y-87272857D01*
X105151333Y-87320476D01*
X105198952Y-87415714D01*
X105246571Y-87463333D01*
X105341809Y-87510952D01*
X105532285Y-87510952D01*
X105627523Y-87558571D01*
X105675142Y-87606190D01*
X105722761Y-87701428D01*
X105722761Y-87891904D01*
X105675142Y-87987142D01*
X105627523Y-88034761D01*
X105532285Y-88082380D01*
X105341809Y-88082380D01*
X105246571Y-88034761D01*
X105198952Y-87987142D01*
X105151333Y-87891904D01*
X105151333Y-87701428D01*
X105198952Y-87606190D01*
X105246571Y-87558571D01*
X105341809Y-87510952D01*
%TO.C,J9*%
X79735333Y-105900380D02*
X79735333Y-106614666D01*
X79782952Y-106757523D01*
X79878190Y-106852761D01*
X80021047Y-106900380D01*
X80116285Y-106900380D01*
X79211523Y-106900380D02*
X79021047Y-106900380D01*
X78925809Y-106852761D01*
X78878190Y-106805142D01*
X78782952Y-106662285D01*
X78735333Y-106471809D01*
X78735333Y-106090857D01*
X78782952Y-105995619D01*
X78830571Y-105948000D01*
X78925809Y-105900380D01*
X79116285Y-105900380D01*
X79211523Y-105948000D01*
X79259142Y-105995619D01*
X79306761Y-106090857D01*
X79306761Y-106328952D01*
X79259142Y-106424190D01*
X79211523Y-106471809D01*
X79116285Y-106519428D01*
X78925809Y-106519428D01*
X78830571Y-106471809D01*
X78782952Y-106424190D01*
X78735333Y-106328952D01*
%TO.C,J10*%
X80211523Y-87082380D02*
X80211523Y-87796666D01*
X80259142Y-87939523D01*
X80354380Y-88034761D01*
X80497238Y-88082380D01*
X80592476Y-88082380D01*
X79211523Y-88082380D02*
X79782952Y-88082380D01*
X79497238Y-88082380D02*
X79497238Y-87082380D01*
X79592476Y-87225238D01*
X79687714Y-87320476D01*
X79782952Y-87368095D01*
X78592476Y-87082380D02*
X78497238Y-87082380D01*
X78402000Y-87130000D01*
X78354380Y-87177619D01*
X78306761Y-87272857D01*
X78259142Y-87463333D01*
X78259142Y-87701428D01*
X78306761Y-87891904D01*
X78354380Y-87987142D01*
X78402000Y-88034761D01*
X78497238Y-88082380D01*
X78592476Y-88082380D01*
X78687714Y-88034761D01*
X78735333Y-87987142D01*
X78782952Y-87891904D01*
X78830571Y-87701428D01*
X78830571Y-87463333D01*
X78782952Y-87272857D01*
X78735333Y-87177619D01*
X78687714Y-87130000D01*
X78592476Y-87082380D01*
%TO.C,J11*%
X52879523Y-87082380D02*
X52879523Y-87796666D01*
X52927142Y-87939523D01*
X53022380Y-88034761D01*
X53165238Y-88082380D01*
X53260476Y-88082380D01*
X51879523Y-88082380D02*
X52450952Y-88082380D01*
X52165238Y-88082380D02*
X52165238Y-87082380D01*
X52260476Y-87225238D01*
X52355714Y-87320476D01*
X52450952Y-87368095D01*
X50927142Y-88082380D02*
X51498571Y-88082380D01*
X51212857Y-88082380D02*
X51212857Y-87082380D01*
X51308095Y-87225238D01*
X51403333Y-87320476D01*
X51498571Y-87368095D01*
%TO.C,J12*%
X53287523Y-106132380D02*
X53287523Y-106846666D01*
X53335142Y-106989523D01*
X53430380Y-107084761D01*
X53573238Y-107132380D01*
X53668476Y-107132380D01*
X52287523Y-107132380D02*
X52858952Y-107132380D01*
X52573238Y-107132380D02*
X52573238Y-106132380D01*
X52668476Y-106275238D01*
X52763714Y-106370476D01*
X52858952Y-106418095D01*
X51906571Y-106227619D02*
X51858952Y-106180000D01*
X51763714Y-106132380D01*
X51525619Y-106132380D01*
X51430380Y-106180000D01*
X51382761Y-106227619D01*
X51335142Y-106322857D01*
X51335142Y-106418095D01*
X51382761Y-106560952D01*
X51954190Y-107132380D01*
X51335142Y-107132380D01*
%TO.C,U3*%
X126368104Y-122066180D02*
X126368104Y-122875704D01*
X126320485Y-122970942D01*
X126272866Y-123018561D01*
X126177628Y-123066180D01*
X125987152Y-123066180D01*
X125891914Y-123018561D01*
X125844295Y-122970942D01*
X125796676Y-122875704D01*
X125796676Y-122066180D01*
X125415723Y-122066180D02*
X124796676Y-122066180D01*
X125130009Y-122447133D01*
X124987152Y-122447133D01*
X124891914Y-122494752D01*
X124844295Y-122542371D01*
X124796676Y-122637609D01*
X124796676Y-122875704D01*
X124844295Y-122970942D01*
X124891914Y-123018561D01*
X124987152Y-123066180D01*
X125272866Y-123066180D01*
X125368104Y-123018561D01*
X125415723Y-122970942D01*
%TO.C,U4*%
X122710504Y-83976980D02*
X122710504Y-84786504D01*
X122662885Y-84881742D01*
X122615266Y-84929361D01*
X122520028Y-84976980D01*
X122329552Y-84976980D01*
X122234314Y-84929361D01*
X122186695Y-84881742D01*
X122139076Y-84786504D01*
X122139076Y-83976980D01*
X121234314Y-84310314D02*
X121234314Y-84976980D01*
X121472409Y-83929361D02*
X121710504Y-84643647D01*
X121091457Y-84643647D01*
%TO.C,U5*%
X99771104Y-122142380D02*
X99771104Y-122951904D01*
X99723485Y-123047142D01*
X99675866Y-123094761D01*
X99580628Y-123142380D01*
X99390152Y-123142380D01*
X99294914Y-123094761D01*
X99247295Y-123047142D01*
X99199676Y-122951904D01*
X99199676Y-122142380D01*
X98247295Y-122142380D02*
X98723485Y-122142380D01*
X98771104Y-122618571D01*
X98723485Y-122570952D01*
X98628247Y-122523333D01*
X98390152Y-122523333D01*
X98294914Y-122570952D01*
X98247295Y-122618571D01*
X98199676Y-122713809D01*
X98199676Y-122951904D01*
X98247295Y-123047142D01*
X98294914Y-123094761D01*
X98390152Y-123142380D01*
X98628247Y-123142380D01*
X98723485Y-123094761D01*
X98771104Y-123047142D01*
%TO.C,U6*%
X95580104Y-85246980D02*
X95580104Y-86056504D01*
X95532485Y-86151742D01*
X95484866Y-86199361D01*
X95389628Y-86246980D01*
X95199152Y-86246980D01*
X95103914Y-86199361D01*
X95056295Y-86151742D01*
X95008676Y-86056504D01*
X95008676Y-85246980D01*
X94103914Y-85246980D02*
X94294390Y-85246980D01*
X94389628Y-85294600D01*
X94437247Y-85342219D01*
X94532485Y-85485076D01*
X94580104Y-85675552D01*
X94580104Y-86056504D01*
X94532485Y-86151742D01*
X94484866Y-86199361D01*
X94389628Y-86246980D01*
X94199152Y-86246980D01*
X94103914Y-86199361D01*
X94056295Y-86151742D01*
X94008676Y-86056504D01*
X94008676Y-85818409D01*
X94056295Y-85723171D01*
X94103914Y-85675552D01*
X94199152Y-85627933D01*
X94389628Y-85627933D01*
X94484866Y-85675552D01*
X94532485Y-85723171D01*
X94580104Y-85818409D01*
%TO.C,U7*%
X73024904Y-122294780D02*
X73024904Y-123104304D01*
X72977285Y-123199542D01*
X72929666Y-123247161D01*
X72834428Y-123294780D01*
X72643952Y-123294780D01*
X72548714Y-123247161D01*
X72501095Y-123199542D01*
X72453476Y-123104304D01*
X72453476Y-122294780D01*
X72072523Y-122294780D02*
X71405857Y-122294780D01*
X71834428Y-123294780D01*
%TO.C,U8*%
X73126504Y-85577180D02*
X73126504Y-86386704D01*
X73078885Y-86481942D01*
X73031266Y-86529561D01*
X72936028Y-86577180D01*
X72745552Y-86577180D01*
X72650314Y-86529561D01*
X72602695Y-86481942D01*
X72555076Y-86386704D01*
X72555076Y-85577180D01*
X71936028Y-86005752D02*
X72031266Y-85958133D01*
X72078885Y-85910514D01*
X72126504Y-85815276D01*
X72126504Y-85767657D01*
X72078885Y-85672419D01*
X72031266Y-85624800D01*
X71936028Y-85577180D01*
X71745552Y-85577180D01*
X71650314Y-85624800D01*
X71602695Y-85672419D01*
X71555076Y-85767657D01*
X71555076Y-85815276D01*
X71602695Y-85910514D01*
X71650314Y-85958133D01*
X71745552Y-86005752D01*
X71936028Y-86005752D01*
X72031266Y-86053371D01*
X72078885Y-86100990D01*
X72126504Y-86196228D01*
X72126504Y-86386704D01*
X72078885Y-86481942D01*
X72031266Y-86529561D01*
X71936028Y-86577180D01*
X71745552Y-86577180D01*
X71650314Y-86529561D01*
X71602695Y-86481942D01*
X71555076Y-86386704D01*
X71555076Y-86196228D01*
X71602695Y-86100990D01*
X71650314Y-86053371D01*
X71745552Y-86005752D01*
%TO.C,U10*%
X46680295Y-121964580D02*
X46680295Y-122774104D01*
X46632676Y-122869342D01*
X46585057Y-122916961D01*
X46489819Y-122964580D01*
X46299342Y-122964580D01*
X46204104Y-122916961D01*
X46156485Y-122869342D01*
X46108866Y-122774104D01*
X46108866Y-121964580D01*
X45108866Y-122964580D02*
X45680295Y-122964580D01*
X45394580Y-122964580D02*
X45394580Y-121964580D01*
X45489819Y-122107438D01*
X45585057Y-122202676D01*
X45680295Y-122250295D01*
X44489819Y-121964580D02*
X44394580Y-121964580D01*
X44299342Y-122012200D01*
X44251723Y-122059819D01*
X44204104Y-122155057D01*
X44156485Y-122345533D01*
X44156485Y-122583628D01*
X44204104Y-122774104D01*
X44251723Y-122869342D01*
X44299342Y-122916961D01*
X44394580Y-122964580D01*
X44489819Y-122964580D01*
X44585057Y-122916961D01*
X44632676Y-122869342D01*
X44680295Y-122774104D01*
X44727914Y-122583628D01*
X44727914Y-122345533D01*
X44680295Y-122155057D01*
X44632676Y-122059819D01*
X44585057Y-122012200D01*
X44489819Y-121964580D01*
%TD*%
M02*
