M48
; DRILL file {KiCad (5.1.8)-1} date 07/13/21 09:26:59
; FORMAT={-:-/ absolute / inch / decimal}
; #@! TF.CreationDate,2021-07-13T09:26:59+05:30
; #@! TF.GenerationSoftware,Kicad,Pcbnew,(5.1.8)-1
FMAT,2
INCH
T1C0.0157
T2C0.0315
T3C0.0374
T4C0.0394
T5C0.0433
T6C0.0866
%
G90
G05
T1
X4.51Y-5.278
X5.029Y-5.341
X5.625Y-2.532
X5.671Y-3.826
X5.675Y-4.681
X5.744Y-2.55
X5.773Y-2.618
X5.777Y-2.735
X5.886Y-4.547
X6.005Y-4.456
X6.514Y-2.683
X6.571Y-4.11
X6.796Y-5.487
X6.859Y-4.431
X7.713Y-4.07
X7.784Y-3.676
X8.486Y-4.789
X8.71Y-5.23
T2
X1.7681Y-4.4066
X1.7681Y-4.7066
X1.8681Y-4.4066
X1.8681Y-4.7066
X1.9681Y-4.4066
X1.9681Y-4.7066
X2.0681Y-4.4066
X2.0681Y-4.7066
X2.1681Y-4.4066
X2.1681Y-4.7066
X2.2681Y-4.4066
X2.2681Y-4.7066
X2.3681Y-4.4066
X2.3681Y-4.7066
X2.817Y-2.979
X2.817Y-3.279
X2.917Y-2.979
X2.917Y-3.279
X3.017Y-2.979
X3.017Y-3.279
X3.117Y-2.979
X3.117Y-3.279
X3.217Y-2.979
X3.217Y-3.279
X3.317Y-2.979
X3.317Y-3.279
X3.417Y-2.979
X3.417Y-3.279
X3.868Y-2.979
X3.868Y-3.279
X3.968Y-2.979
X3.968Y-3.279
X4.068Y-2.979
X4.068Y-3.279
X4.168Y-2.979
X4.168Y-3.279
X4.268Y-2.979
X4.268Y-3.279
X4.368Y-2.979
X4.368Y-3.279
X4.468Y-2.979
X4.468Y-3.279
X4.9311Y-4.4066
X4.9311Y-4.7066
X5.0311Y-4.4066
X5.0311Y-4.7066
X5.1311Y-4.4066
X5.1311Y-4.7066
X5.2311Y-4.4066
X5.2311Y-4.7066
X5.3311Y-4.4066
X5.3311Y-4.7066
X5.4311Y-4.4066
X5.4311Y-4.7066
X5.5311Y-4.4066
X5.5311Y-4.7066
X4.9311Y-2.979
X4.9311Y-3.279
X5.0311Y-2.979
X5.0311Y-3.279
X5.1311Y-2.979
X5.1311Y-3.279
X5.2311Y-2.979
X5.2311Y-3.279
X5.3311Y-2.979
X5.3311Y-3.279
X5.4311Y-2.979
X5.4311Y-3.279
X5.5311Y-2.979
X5.5311Y-3.279
X1.7681Y-2.979
X1.7681Y-3.279
X1.8681Y-2.979
X1.8681Y-3.279
X1.9681Y-2.979
X1.9681Y-3.279
X2.0681Y-2.979
X2.0681Y-3.279
X2.1681Y-2.979
X2.1681Y-3.279
X2.2681Y-2.979
X2.2681Y-3.279
X2.3681Y-2.979
X2.3681Y-3.279
X7.262Y-5.014
X7.362Y-5.014
X7.462Y-5.014
X3.868Y-4.4066
X3.868Y-4.7066
X3.968Y-4.4066
X3.968Y-4.7066
X4.068Y-4.4066
X4.068Y-4.7066
X4.168Y-4.4066
X4.168Y-4.7066
X4.268Y-4.4066
X4.268Y-4.7066
X4.368Y-4.4066
X4.368Y-4.7066
X4.468Y-4.4066
X4.468Y-4.7066
X2.829Y-4.4066
X2.829Y-4.7066
X2.929Y-4.4066
X2.929Y-4.7066
X3.029Y-4.4066
X3.029Y-4.7066
X3.129Y-4.4066
X3.129Y-4.7066
X3.229Y-4.4066
X3.229Y-4.7066
X3.329Y-4.4066
X3.329Y-4.7066
X3.429Y-4.4066
X3.429Y-4.7066
T3
X3.92Y-3.6094
X4.0184Y-3.6094
X4.1169Y-3.6094
X4.2153Y-3.6094
X4.3137Y-3.6094
X4.4121Y-3.6094
X1.82Y-3.6094
X1.9184Y-3.6094
X2.0169Y-3.6094
X2.1153Y-3.6094
X2.2137Y-3.6094
X2.3121Y-3.6094
X3.92Y-4.0806
X4.0184Y-4.0806
X4.1169Y-4.0806
X4.2153Y-4.0806
X4.3137Y-4.0806
X4.4121Y-4.0806
X4.98Y-4.0806
X5.0784Y-4.0806
X5.1769Y-4.0806
X5.2753Y-4.0806
X5.3737Y-4.0806
X5.4721Y-4.0806
X4.98Y-3.6094
X5.0784Y-3.6094
X5.1769Y-3.6094
X5.2753Y-3.6094
X5.3737Y-3.6094
X5.4721Y-3.6094
X1.82Y-4.0806
X1.9184Y-4.0806
X2.0169Y-4.0806
X2.1153Y-4.0806
X2.2137Y-4.0806
X2.3121Y-4.0806
X2.88Y-4.0806
X2.9784Y-4.0806
X3.0769Y-4.0806
X3.1753Y-4.0806
X3.2737Y-4.0806
X3.3721Y-4.0806
X6.6Y-5.018
X6.6984Y-5.018
X6.7969Y-5.018
X6.8953Y-5.018
X2.88Y-3.6094
X2.9784Y-3.6094
X3.0769Y-3.6094
X3.1753Y-3.6094
X3.2737Y-3.6094
X3.3721Y-3.6094
T4
X9.354Y-3.753
X9.354Y-3.853
X9.354Y-3.953
X9.354Y-4.053
X9.354Y-4.153
X9.354Y-4.253
X9.354Y-4.353
X9.354Y-4.453
X7.86Y-5.052
X7.96Y-5.052
X8.06Y-5.052
X8.16Y-5.052
X8.26Y-5.052
X8.36Y-5.052
X8.46Y-5.052
X8.56Y-5.052
X8.66Y-5.052
X8.76Y-5.052
X8.86Y-5.052
X8.96Y-5.052
X9.06Y-5.052
X9.16Y-5.052
X9.26Y-5.052
X9.36Y-5.052
X9.2Y-3.25
X9.3Y-3.25
X1.46Y-2.61
X1.46Y-2.71
X1.46Y-5.01
X1.46Y-5.11
X1.56Y-2.61
X1.56Y-2.71
X1.56Y-5.01
X1.56Y-5.11
X1.66Y-2.61
X1.66Y-2.71
X1.66Y-5.01
X1.66Y-5.11
X1.76Y-2.61
X1.76Y-2.71
X1.76Y-5.01
X1.76Y-5.11
X1.86Y-2.61
X1.86Y-2.71
X1.86Y-5.01
X1.86Y-5.11
X1.96Y-2.61
X1.96Y-2.71
X1.96Y-5.01
X1.96Y-5.11
X2.06Y-2.61
X2.06Y-2.71
X2.06Y-5.01
X2.06Y-5.11
X2.16Y-2.61
X2.16Y-2.71
X2.16Y-5.01
X2.16Y-5.11
X2.26Y-2.61
X2.26Y-2.71
X2.26Y-5.01
X2.26Y-5.11
X2.36Y-2.61
X2.36Y-2.71
X2.36Y-5.01
X2.36Y-5.11
X2.46Y-2.61
X2.46Y-2.71
X2.46Y-5.01
X2.46Y-5.11
X2.56Y-2.61
X2.56Y-2.71
X2.56Y-5.01
X2.56Y-5.11
X2.66Y-2.61
X2.66Y-2.71
X2.66Y-5.01
X2.66Y-5.11
X2.76Y-2.61
X2.76Y-2.71
X2.76Y-5.01
X2.76Y-5.11
X2.86Y-2.61
X2.86Y-2.71
X2.86Y-5.01
X2.86Y-5.11
X2.96Y-2.61
X2.96Y-2.71
X2.96Y-5.01
X2.96Y-5.11
X3.06Y-2.61
X3.06Y-2.71
X3.06Y-5.01
X3.06Y-5.11
X3.16Y-2.61
X3.16Y-2.71
X3.16Y-5.01
X3.16Y-5.11
X3.26Y-2.61
X3.26Y-2.71
X3.26Y-5.01
X3.26Y-5.11
X3.36Y-2.61
X3.36Y-2.71
X3.36Y-5.01
X3.36Y-5.11
X3.46Y-2.61
X3.46Y-2.71
X3.46Y-5.01
X3.46Y-5.11
X3.56Y-2.61
X3.56Y-2.71
X3.56Y-5.01
X3.56Y-5.11
X3.66Y-2.61
X3.66Y-2.71
X3.66Y-5.01
X3.66Y-5.11
X3.76Y-2.61
X3.76Y-2.71
X3.76Y-5.01
X3.76Y-5.11
X3.86Y-2.61
X3.86Y-2.71
X3.86Y-5.01
X3.86Y-5.11
X3.96Y-2.61
X3.96Y-2.71
X3.96Y-5.01
X3.96Y-5.11
X4.06Y-2.61
X4.06Y-2.71
X4.06Y-5.01
X4.06Y-5.11
X4.16Y-2.61
X4.16Y-2.71
X4.16Y-5.01
X4.16Y-5.11
X4.26Y-2.61
X4.26Y-2.71
X4.26Y-5.01
X4.26Y-5.11
X4.36Y-2.61
X4.36Y-2.71
X4.36Y-5.01
X4.36Y-5.11
X4.46Y-2.61
X4.46Y-2.71
X4.46Y-5.01
X4.46Y-5.11
X4.56Y-2.61
X4.56Y-2.71
X4.56Y-5.01
X4.56Y-5.11
X4.66Y-2.61
X4.66Y-2.71
X4.66Y-5.01
X4.66Y-5.11
X4.76Y-2.61
X4.76Y-2.71
X4.76Y-5.01
X4.76Y-5.11
X4.86Y-2.61
X4.86Y-2.71
X4.86Y-5.01
X4.86Y-5.11
X4.96Y-2.61
X4.96Y-2.71
X4.96Y-5.01
X4.96Y-5.11
X5.96Y-2.61
X5.96Y-5.11
X6.06Y-2.61
X6.06Y-5.11
X6.6Y-3.6
X6.7Y-3.6
T5
X7.075Y-2.85
X7.175Y-2.85
X7.275Y-2.85
X8.25Y-2.85
X8.35Y-2.85
X8.45Y-2.85
T6
X1.3Y-5.4
X9.0Y-2.3
X1.3Y-2.3
X9.0Y-5.4
T4
G00X9.1705Y-2.8394
M15
G01X9.1705Y-2.7606
M16
G05
G00X9.328Y-2.615
M15
G01X9.2492Y-2.615
M16
G05
G00X9.4067Y-2.8394
M15
G01X9.4067Y-2.7606
M16
G05
T0
M30
