%TF.GenerationSoftware,KiCad,Pcbnew,(5.1.8)-1*%
%TF.CreationDate,2021-07-13T09:26:45+05:30*%
%TF.ProjectId,rfsm,7266736d-2e6b-4696-9361-645f70636258,rev?*%
%TF.SameCoordinates,Original*%
%TF.FileFunction,Paste,Bot*%
%TF.FilePolarity,Positive*%
%FSLAX46Y46*%
G04 Gerber Fmt 4.6, Leading zero omitted, Abs format (unit mm)*
G04 Created by KiCad (PCBNEW (5.1.8)-1) date 2021-07-13 09:26:45*
%MOMM*%
%LPD*%
G01*
G04 APERTURE LIST*
G04 APERTURE END LIST*
%TO.C,C15*%
G36*
G01*
X39276000Y-79711300D02*
X40226000Y-79711300D01*
G75*
G02*
X40476000Y-79961300I0J-250000D01*
G01*
X40476000Y-80636300D01*
G75*
G02*
X40226000Y-80886300I-250000J0D01*
G01*
X39276000Y-80886300D01*
G75*
G02*
X39026000Y-80636300I0J250000D01*
G01*
X39026000Y-79961300D01*
G75*
G02*
X39276000Y-79711300I250000J0D01*
G01*
G37*
G36*
G01*
X39276000Y-77636300D02*
X40226000Y-77636300D01*
G75*
G02*
X40476000Y-77886300I0J-250000D01*
G01*
X40476000Y-78561300D01*
G75*
G02*
X40226000Y-78811300I-250000J0D01*
G01*
X39276000Y-78811300D01*
G75*
G02*
X39026000Y-78561300I0J250000D01*
G01*
X39026000Y-77886300D01*
G75*
G02*
X39276000Y-77636300I250000J0D01*
G01*
G37*
%TD*%
%TO.C,C16*%
G36*
G01*
X40226000Y-115323200D02*
X39276000Y-115323200D01*
G75*
G02*
X39026000Y-115073200I0J250000D01*
G01*
X39026000Y-114398200D01*
G75*
G02*
X39276000Y-114148200I250000J0D01*
G01*
X40226000Y-114148200D01*
G75*
G02*
X40476000Y-114398200I0J-250000D01*
G01*
X40476000Y-115073200D01*
G75*
G02*
X40226000Y-115323200I-250000J0D01*
G01*
G37*
G36*
G01*
X40226000Y-117398200D02*
X39276000Y-117398200D01*
G75*
G02*
X39026000Y-117148200I0J250000D01*
G01*
X39026000Y-116473200D01*
G75*
G02*
X39276000Y-116223200I250000J0D01*
G01*
X40226000Y-116223200D01*
G75*
G02*
X40476000Y-116473200I0J-250000D01*
G01*
X40476000Y-117148200D01*
G75*
G02*
X40226000Y-117398200I-250000J0D01*
G01*
G37*
%TD*%
%TO.C,C14*%
G36*
G01*
X66200000Y-79711300D02*
X67150000Y-79711300D01*
G75*
G02*
X67400000Y-79961300I0J-250000D01*
G01*
X67400000Y-80636300D01*
G75*
G02*
X67150000Y-80886300I-250000J0D01*
G01*
X66200000Y-80886300D01*
G75*
G02*
X65950000Y-80636300I0J250000D01*
G01*
X65950000Y-79961300D01*
G75*
G02*
X66200000Y-79711300I250000J0D01*
G01*
G37*
G36*
G01*
X66200000Y-77636300D02*
X67150000Y-77636300D01*
G75*
G02*
X67400000Y-77886300I0J-250000D01*
G01*
X67400000Y-78561300D01*
G75*
G02*
X67150000Y-78811300I-250000J0D01*
G01*
X66200000Y-78811300D01*
G75*
G02*
X65950000Y-78561300I0J250000D01*
G01*
X65950000Y-77886300D01*
G75*
G02*
X66200000Y-77636300I250000J0D01*
G01*
G37*
%TD*%
%TO.C,C13*%
G36*
G01*
X67327800Y-115323200D02*
X66377800Y-115323200D01*
G75*
G02*
X66127800Y-115073200I0J250000D01*
G01*
X66127800Y-114398200D01*
G75*
G02*
X66377800Y-114148200I250000J0D01*
G01*
X67327800Y-114148200D01*
G75*
G02*
X67577800Y-114398200I0J-250000D01*
G01*
X67577800Y-115073200D01*
G75*
G02*
X67327800Y-115323200I-250000J0D01*
G01*
G37*
G36*
G01*
X67327800Y-117398200D02*
X66377800Y-117398200D01*
G75*
G02*
X66127800Y-117148200I0J250000D01*
G01*
X66127800Y-116473200D01*
G75*
G02*
X66377800Y-116223200I250000J0D01*
G01*
X67327800Y-116223200D01*
G75*
G02*
X67577800Y-116473200I0J-250000D01*
G01*
X67577800Y-117148200D01*
G75*
G02*
X67327800Y-117398200I-250000J0D01*
G01*
G37*
%TD*%
%TO.C,C12*%
G36*
G01*
X93149400Y-79711300D02*
X94099400Y-79711300D01*
G75*
G02*
X94349400Y-79961300I0J-250000D01*
G01*
X94349400Y-80636300D01*
G75*
G02*
X94099400Y-80886300I-250000J0D01*
G01*
X93149400Y-80886300D01*
G75*
G02*
X92899400Y-80636300I0J250000D01*
G01*
X92899400Y-79961300D01*
G75*
G02*
X93149400Y-79711300I250000J0D01*
G01*
G37*
G36*
G01*
X93149400Y-77636300D02*
X94099400Y-77636300D01*
G75*
G02*
X94349400Y-77886300I0J-250000D01*
G01*
X94349400Y-78561300D01*
G75*
G02*
X94099400Y-78811300I-250000J0D01*
G01*
X93149400Y-78811300D01*
G75*
G02*
X92899400Y-78561300I0J250000D01*
G01*
X92899400Y-77886300D01*
G75*
G02*
X93149400Y-77636300I250000J0D01*
G01*
G37*
%TD*%
%TO.C,C11*%
G36*
G01*
X94099400Y-115323200D02*
X93149400Y-115323200D01*
G75*
G02*
X92899400Y-115073200I0J250000D01*
G01*
X92899400Y-114398200D01*
G75*
G02*
X93149400Y-114148200I250000J0D01*
G01*
X94099400Y-114148200D01*
G75*
G02*
X94349400Y-114398200I0J-250000D01*
G01*
X94349400Y-115073200D01*
G75*
G02*
X94099400Y-115323200I-250000J0D01*
G01*
G37*
G36*
G01*
X94099400Y-117398200D02*
X93149400Y-117398200D01*
G75*
G02*
X92899400Y-117148200I0J250000D01*
G01*
X92899400Y-116473200D01*
G75*
G02*
X93149400Y-116223200I250000J0D01*
G01*
X94099400Y-116223200D01*
G75*
G02*
X94349400Y-116473200I0J-250000D01*
G01*
X94349400Y-117148200D01*
G75*
G02*
X94099400Y-117398200I-250000J0D01*
G01*
G37*
%TD*%
%TO.C,C10*%
G36*
G01*
X119590800Y-79711300D02*
X120540800Y-79711300D01*
G75*
G02*
X120790800Y-79961300I0J-250000D01*
G01*
X120790800Y-80636300D01*
G75*
G02*
X120540800Y-80886300I-250000J0D01*
G01*
X119590800Y-80886300D01*
G75*
G02*
X119340800Y-80636300I0J250000D01*
G01*
X119340800Y-79961300D01*
G75*
G02*
X119590800Y-79711300I250000J0D01*
G01*
G37*
G36*
G01*
X119590800Y-77636300D02*
X120540800Y-77636300D01*
G75*
G02*
X120790800Y-77886300I0J-250000D01*
G01*
X120790800Y-78561300D01*
G75*
G02*
X120540800Y-78811300I-250000J0D01*
G01*
X119590800Y-78811300D01*
G75*
G02*
X119340800Y-78561300I0J250000D01*
G01*
X119340800Y-77886300D01*
G75*
G02*
X119590800Y-77636300I250000J0D01*
G01*
G37*
%TD*%
%TO.C,C9*%
G36*
G01*
X120960000Y-115323200D02*
X120010000Y-115323200D01*
G75*
G02*
X119760000Y-115073200I0J250000D01*
G01*
X119760000Y-114398200D01*
G75*
G02*
X120010000Y-114148200I250000J0D01*
G01*
X120960000Y-114148200D01*
G75*
G02*
X121210000Y-114398200I0J-250000D01*
G01*
X121210000Y-115073200D01*
G75*
G02*
X120960000Y-115323200I-250000J0D01*
G01*
G37*
G36*
G01*
X120960000Y-117398200D02*
X120010000Y-117398200D01*
G75*
G02*
X119760000Y-117148200I0J250000D01*
G01*
X119760000Y-116473200D01*
G75*
G02*
X120010000Y-116223200I250000J0D01*
G01*
X120960000Y-116223200D01*
G75*
G02*
X121210000Y-116473200I0J-250000D01*
G01*
X121210000Y-117148200D01*
G75*
G02*
X120960000Y-117398200I-250000J0D01*
G01*
G37*
%TD*%
M02*
