%TF.GenerationSoftware,KiCad,Pcbnew,(5.1.8)-1*%
%TF.CreationDate,2021-07-13T09:26:45+05:30*%
%TF.ProjectId,rfsm,7266736d-2e6b-4696-9361-645f70636258,rev?*%
%TF.SameCoordinates,Original*%
%TF.FileFunction,Paste,Top*%
%TF.FilePolarity,Positive*%
%FSLAX46Y46*%
G04 Gerber Fmt 4.6, Leading zero omitted, Abs format (unit mm)*
G04 Created by KiCad (PCBNEW (5.1.8)-1) date 2021-07-13 09:26:45*
%MOMM*%
%LPD*%
G01*
G04 APERTURE LIST*
%ADD10R,0.800000X0.900000*%
G04 APERTURE END LIST*
%TO.C,C17*%
G36*
G01*
X227054999Y-72715000D02*
X227605001Y-72715000D01*
G75*
G02*
X227855000Y-72964999I0J-249999D01*
G01*
X227855000Y-73765001D01*
G75*
G02*
X227605001Y-74015000I-249999J0D01*
G01*
X227054999Y-74015000D01*
G75*
G02*
X226805000Y-73765001I0J249999D01*
G01*
X226805000Y-72964999D01*
G75*
G02*
X227054999Y-72715000I249999J0D01*
G01*
G37*
G36*
G01*
X227054999Y-70765000D02*
X227605001Y-70765000D01*
G75*
G02*
X227855000Y-71014999I0J-249999D01*
G01*
X227855000Y-71815001D01*
G75*
G02*
X227605001Y-72065000I-249999J0D01*
G01*
X227054999Y-72065000D01*
G75*
G02*
X226805000Y-71815001I0J249999D01*
G01*
X226805000Y-71014999D01*
G75*
G02*
X227054999Y-70765000I249999J0D01*
G01*
G37*
%TD*%
%TO.C,C1*%
G36*
G01*
X220312000Y-72110000D02*
X219362000Y-72110000D01*
G75*
G02*
X219112000Y-71860000I0J250000D01*
G01*
X219112000Y-71185000D01*
G75*
G02*
X219362000Y-70935000I250000J0D01*
G01*
X220312000Y-70935000D01*
G75*
G02*
X220562000Y-71185000I0J-250000D01*
G01*
X220562000Y-71860000D01*
G75*
G02*
X220312000Y-72110000I-250000J0D01*
G01*
G37*
G36*
G01*
X220312000Y-70035000D02*
X219362000Y-70035000D01*
G75*
G02*
X219112000Y-69785000I0J250000D01*
G01*
X219112000Y-69110000D01*
G75*
G02*
X219362000Y-68860000I250000J0D01*
G01*
X220312000Y-68860000D01*
G75*
G02*
X220562000Y-69110000I0J-250000D01*
G01*
X220562000Y-69785000D01*
G75*
G02*
X220312000Y-70035000I-250000J0D01*
G01*
G37*
%TD*%
%TO.C,C2*%
G36*
G01*
X204694201Y-72110000D02*
X204144199Y-72110000D01*
G75*
G02*
X203894200Y-71860001I0J249999D01*
G01*
X203894200Y-71059999D01*
G75*
G02*
X204144199Y-70810000I249999J0D01*
G01*
X204694201Y-70810000D01*
G75*
G02*
X204944200Y-71059999I0J-249999D01*
G01*
X204944200Y-71860001D01*
G75*
G02*
X204694201Y-72110000I-249999J0D01*
G01*
G37*
G36*
G01*
X204694201Y-70160000D02*
X204144199Y-70160000D01*
G75*
G02*
X203894200Y-69910001I0J249999D01*
G01*
X203894200Y-69109999D01*
G75*
G02*
X204144199Y-68860000I249999J0D01*
G01*
X204694201Y-68860000D01*
G75*
G02*
X204944200Y-69109999I0J-249999D01*
G01*
X204944200Y-69910001D01*
G75*
G02*
X204694201Y-70160000I-249999J0D01*
G01*
G37*
%TD*%
%TO.C,C3*%
G36*
G01*
X204201599Y-92736000D02*
X204751601Y-92736000D01*
G75*
G02*
X205001600Y-92985999I0J-249999D01*
G01*
X205001600Y-93786001D01*
G75*
G02*
X204751601Y-94036000I-249999J0D01*
G01*
X204201599Y-94036000D01*
G75*
G02*
X203951600Y-93786001I0J249999D01*
G01*
X203951600Y-92985999D01*
G75*
G02*
X204201599Y-92736000I249999J0D01*
G01*
G37*
G36*
G01*
X204201599Y-94686000D02*
X204751601Y-94686000D01*
G75*
G02*
X205001600Y-94935999I0J-249999D01*
G01*
X205001600Y-95736001D01*
G75*
G02*
X204751601Y-95986000I-249999J0D01*
G01*
X204201599Y-95986000D01*
G75*
G02*
X203951600Y-95736001I0J249999D01*
G01*
X203951600Y-94935999D01*
G75*
G02*
X204201599Y-94686000I249999J0D01*
G01*
G37*
%TD*%
%TO.C,C4*%
G36*
G01*
X209078400Y-92736000D02*
X210028400Y-92736000D01*
G75*
G02*
X210278400Y-92986000I0J-250000D01*
G01*
X210278400Y-93661000D01*
G75*
G02*
X210028400Y-93911000I-250000J0D01*
G01*
X209078400Y-93911000D01*
G75*
G02*
X208828400Y-93661000I0J250000D01*
G01*
X208828400Y-92986000D01*
G75*
G02*
X209078400Y-92736000I250000J0D01*
G01*
G37*
G36*
G01*
X209078400Y-94811000D02*
X210028400Y-94811000D01*
G75*
G02*
X210278400Y-95061000I0J-250000D01*
G01*
X210278400Y-95736000D01*
G75*
G02*
X210028400Y-95986000I-250000J0D01*
G01*
X209078400Y-95986000D01*
G75*
G02*
X208828400Y-95736000I0J250000D01*
G01*
X208828400Y-95061000D01*
G75*
G02*
X209078400Y-94811000I250000J0D01*
G01*
G37*
%TD*%
%TO.C,C5*%
G36*
G01*
X201302600Y-118509200D02*
X202252600Y-118509200D01*
G75*
G02*
X202502600Y-118759200I0J-250000D01*
G01*
X202502600Y-119434200D01*
G75*
G02*
X202252600Y-119684200I-250000J0D01*
G01*
X201302600Y-119684200D01*
G75*
G02*
X201052600Y-119434200I0J250000D01*
G01*
X201052600Y-118759200D01*
G75*
G02*
X201302600Y-118509200I250000J0D01*
G01*
G37*
G36*
G01*
X201302600Y-116434200D02*
X202252600Y-116434200D01*
G75*
G02*
X202502600Y-116684200I0J-250000D01*
G01*
X202502600Y-117359200D01*
G75*
G02*
X202252600Y-117609200I-250000J0D01*
G01*
X201302600Y-117609200D01*
G75*
G02*
X201052600Y-117359200I0J250000D01*
G01*
X201052600Y-116684200D01*
G75*
G02*
X201302600Y-116434200I250000J0D01*
G01*
G37*
%TD*%
%TO.C,C6*%
G36*
G01*
X196066999Y-118384200D02*
X196617001Y-118384200D01*
G75*
G02*
X196867000Y-118634199I0J-249999D01*
G01*
X196867000Y-119434201D01*
G75*
G02*
X196617001Y-119684200I-249999J0D01*
G01*
X196066999Y-119684200D01*
G75*
G02*
X195817000Y-119434201I0J249999D01*
G01*
X195817000Y-118634199D01*
G75*
G02*
X196066999Y-118384200I249999J0D01*
G01*
G37*
G36*
G01*
X196066999Y-116434200D02*
X196617001Y-116434200D01*
G75*
G02*
X196867000Y-116684199I0J-249999D01*
G01*
X196867000Y-117484201D01*
G75*
G02*
X196617001Y-117734200I-249999J0D01*
G01*
X196066999Y-117734200D01*
G75*
G02*
X195817000Y-117484201I0J249999D01*
G01*
X195817000Y-116684199D01*
G75*
G02*
X196066999Y-116434200I249999J0D01*
G01*
G37*
%TD*%
%TO.C,C7*%
G36*
G01*
X190340000Y-70035000D02*
X189390000Y-70035000D01*
G75*
G02*
X189140000Y-69785000I0J250000D01*
G01*
X189140000Y-69110000D01*
G75*
G02*
X189390000Y-68860000I250000J0D01*
G01*
X190340000Y-68860000D01*
G75*
G02*
X190590000Y-69110000I0J-250000D01*
G01*
X190590000Y-69785000D01*
G75*
G02*
X190340000Y-70035000I-250000J0D01*
G01*
G37*
G36*
G01*
X190340000Y-72110000D02*
X189390000Y-72110000D01*
G75*
G02*
X189140000Y-71860000I0J250000D01*
G01*
X189140000Y-71185000D01*
G75*
G02*
X189390000Y-70935000I250000J0D01*
G01*
X190340000Y-70935000D01*
G75*
G02*
X190590000Y-71185000I0J-250000D01*
G01*
X190590000Y-71860000D01*
G75*
G02*
X190340000Y-72110000I-250000J0D01*
G01*
G37*
%TD*%
%TO.C,C8*%
G36*
G01*
X174773001Y-70160000D02*
X174222999Y-70160000D01*
G75*
G02*
X173973000Y-69910001I0J249999D01*
G01*
X173973000Y-69109999D01*
G75*
G02*
X174222999Y-68860000I249999J0D01*
G01*
X174773001Y-68860000D01*
G75*
G02*
X175023000Y-69109999I0J-249999D01*
G01*
X175023000Y-69910001D01*
G75*
G02*
X174773001Y-70160000I-249999J0D01*
G01*
G37*
G36*
G01*
X174773001Y-72110000D02*
X174222999Y-72110000D01*
G75*
G02*
X173973000Y-71860001I0J249999D01*
G01*
X173973000Y-71059999D01*
G75*
G02*
X174222999Y-70810000I249999J0D01*
G01*
X174773001Y-70810000D01*
G75*
G02*
X175023000Y-71059999I0J-249999D01*
G01*
X175023000Y-71860001D01*
G75*
G02*
X174773001Y-72110000I-249999J0D01*
G01*
G37*
%TD*%
D10*
%TO.C,Q1*%
X237170000Y-120920000D03*
X235270000Y-120920000D03*
X236220000Y-122920000D03*
%TD*%
%TO.C,R1*%
G36*
G01*
X230708000Y-121190599D02*
X230708000Y-122090601D01*
G75*
G02*
X230458001Y-122340600I-249999J0D01*
G01*
X229757999Y-122340600D01*
G75*
G02*
X229508000Y-122090601I0J249999D01*
G01*
X229508000Y-121190599D01*
G75*
G02*
X229757999Y-120940600I249999J0D01*
G01*
X230458001Y-120940600D01*
G75*
G02*
X230708000Y-121190599I0J-249999D01*
G01*
G37*
G36*
G01*
X228708000Y-121190599D02*
X228708000Y-122090601D01*
G75*
G02*
X228458001Y-122340600I-249999J0D01*
G01*
X227757999Y-122340600D01*
G75*
G02*
X227508000Y-122090601I0J249999D01*
G01*
X227508000Y-121190599D01*
G75*
G02*
X227757999Y-120940600I249999J0D01*
G01*
X228458001Y-120940600D01*
G75*
G02*
X228708000Y-121190599I0J-249999D01*
G01*
G37*
%TD*%
%TO.C,R2*%
G36*
G01*
X214846999Y-94761000D02*
X215747001Y-94761000D01*
G75*
G02*
X215997000Y-95010999I0J-249999D01*
G01*
X215997000Y-95711001D01*
G75*
G02*
X215747001Y-95961000I-249999J0D01*
G01*
X214846999Y-95961000D01*
G75*
G02*
X214597000Y-95711001I0J249999D01*
G01*
X214597000Y-95010999D01*
G75*
G02*
X214846999Y-94761000I249999J0D01*
G01*
G37*
G36*
G01*
X214846999Y-92761000D02*
X215747001Y-92761000D01*
G75*
G02*
X215997000Y-93010999I0J-249999D01*
G01*
X215997000Y-93711001D01*
G75*
G02*
X215747001Y-93961000I-249999J0D01*
G01*
X214846999Y-93961000D01*
G75*
G02*
X214597000Y-93711001I0J249999D01*
G01*
X214597000Y-93010999D01*
G75*
G02*
X214846999Y-92761000I249999J0D01*
G01*
G37*
%TD*%
%TO.C,R3*%
G36*
G01*
X219926999Y-94761000D02*
X220827001Y-94761000D01*
G75*
G02*
X221077000Y-95010999I0J-249999D01*
G01*
X221077000Y-95711001D01*
G75*
G02*
X220827001Y-95961000I-249999J0D01*
G01*
X219926999Y-95961000D01*
G75*
G02*
X219677000Y-95711001I0J249999D01*
G01*
X219677000Y-95010999D01*
G75*
G02*
X219926999Y-94761000I249999J0D01*
G01*
G37*
G36*
G01*
X219926999Y-92761000D02*
X220827001Y-92761000D01*
G75*
G02*
X221077000Y-93010999I0J-249999D01*
G01*
X221077000Y-93711001D01*
G75*
G02*
X220827001Y-93961000I-249999J0D01*
G01*
X219926999Y-93961000D01*
G75*
G02*
X219677000Y-93711001I0J249999D01*
G01*
X219677000Y-93010999D01*
G75*
G02*
X219926999Y-92761000I249999J0D01*
G01*
G37*
%TD*%
%TO.C,R4*%
G36*
G01*
X225235599Y-92761000D02*
X226135601Y-92761000D01*
G75*
G02*
X226385600Y-93010999I0J-249999D01*
G01*
X226385600Y-93711001D01*
G75*
G02*
X226135601Y-93961000I-249999J0D01*
G01*
X225235599Y-93961000D01*
G75*
G02*
X224985600Y-93711001I0J249999D01*
G01*
X224985600Y-93010999D01*
G75*
G02*
X225235599Y-92761000I249999J0D01*
G01*
G37*
G36*
G01*
X225235599Y-94761000D02*
X226135601Y-94761000D01*
G75*
G02*
X226385600Y-95010999I0J-249999D01*
G01*
X226385600Y-95711001D01*
G75*
G02*
X226135601Y-95961000I-249999J0D01*
G01*
X225235599Y-95961000D01*
G75*
G02*
X224985600Y-95711001I0J249999D01*
G01*
X224985600Y-95010999D01*
G75*
G02*
X225235599Y-94761000I249999J0D01*
G01*
G37*
%TD*%
%TO.C,R5*%
G36*
G01*
X229985399Y-94761000D02*
X230885401Y-94761000D01*
G75*
G02*
X231135400Y-95010999I0J-249999D01*
G01*
X231135400Y-95711001D01*
G75*
G02*
X230885401Y-95961000I-249999J0D01*
G01*
X229985399Y-95961000D01*
G75*
G02*
X229735400Y-95711001I0J249999D01*
G01*
X229735400Y-95010999D01*
G75*
G02*
X229985399Y-94761000I249999J0D01*
G01*
G37*
G36*
G01*
X229985399Y-92761000D02*
X230885401Y-92761000D01*
G75*
G02*
X231135400Y-93010999I0J-249999D01*
G01*
X231135400Y-93711001D01*
G75*
G02*
X230885401Y-93961000I-249999J0D01*
G01*
X229985399Y-93961000D01*
G75*
G02*
X229735400Y-93711001I0J249999D01*
G01*
X229735400Y-93010999D01*
G75*
G02*
X229985399Y-92761000I249999J0D01*
G01*
G37*
%TD*%
%TO.C,R6*%
G36*
G01*
X221031000Y-122090601D02*
X221031000Y-121190599D01*
G75*
G02*
X221280999Y-120940600I249999J0D01*
G01*
X221981001Y-120940600D01*
G75*
G02*
X222231000Y-121190599I0J-249999D01*
G01*
X222231000Y-122090601D01*
G75*
G02*
X221981001Y-122340600I-249999J0D01*
G01*
X221280999Y-122340600D01*
G75*
G02*
X221031000Y-122090601I0J249999D01*
G01*
G37*
G36*
G01*
X223031000Y-122090601D02*
X223031000Y-121190599D01*
G75*
G02*
X223280999Y-120940600I249999J0D01*
G01*
X223981001Y-120940600D01*
G75*
G02*
X224231000Y-121190599I0J-249999D01*
G01*
X224231000Y-122090601D01*
G75*
G02*
X223981001Y-122340600I-249999J0D01*
G01*
X223280999Y-122340600D01*
G75*
G02*
X223031000Y-122090601I0J249999D01*
G01*
G37*
%TD*%
M02*
