%TF.GenerationSoftware,KiCad,Pcbnew,(5.1.8)-1*%
%TF.CreationDate,2021-07-13T09:26:45+05:30*%
%TF.ProjectId,rfsm,7266736d-2e6b-4696-9361-645f70636258,rev?*%
%TF.SameCoordinates,Original*%
%TF.FileFunction,Legend,Top*%
%TF.FilePolarity,Positive*%
%FSLAX46Y46*%
G04 Gerber Fmt 4.6, Leading zero omitted, Abs format (unit mm)*
G04 Created by KiCad (PCBNEW (5.1.8)-1) date 2021-07-13 09:26:45*
%MOMM*%
%LPD*%
G01*
G04 APERTURE LIST*
%ADD10C,0.200000*%
%ADD11C,0.300000*%
%ADD12C,0.120000*%
%ADD13C,0.150000*%
G04 APERTURE END LIST*
D10*
X182109504Y-64938066D02*
X182014266Y-64842828D01*
X181823790Y-64557114D01*
X181728552Y-64366638D01*
X181633314Y-64080923D01*
X181538076Y-63604733D01*
X181538076Y-63223780D01*
X181633314Y-62747590D01*
X181728552Y-62461876D01*
X181823790Y-62271400D01*
X182014266Y-61985685D01*
X182109504Y-61890447D01*
X184014266Y-64176161D02*
X183347600Y-63223780D01*
X182871409Y-64176161D02*
X182871409Y-62176161D01*
X183633314Y-62176161D01*
X183823790Y-62271400D01*
X183919028Y-62366638D01*
X184014266Y-62557114D01*
X184014266Y-62842828D01*
X183919028Y-63033304D01*
X183823790Y-63128542D01*
X183633314Y-63223780D01*
X182871409Y-63223780D01*
X185538076Y-63128542D02*
X184871409Y-63128542D01*
X184871409Y-64176161D02*
X184871409Y-62176161D01*
X185823790Y-62176161D01*
X186490457Y-64080923D02*
X186776171Y-64176161D01*
X187252361Y-64176161D01*
X187442838Y-64080923D01*
X187538076Y-63985685D01*
X187633314Y-63795209D01*
X187633314Y-63604733D01*
X187538076Y-63414257D01*
X187442838Y-63319019D01*
X187252361Y-63223780D01*
X186871409Y-63128542D01*
X186680933Y-63033304D01*
X186585695Y-62938066D01*
X186490457Y-62747590D01*
X186490457Y-62557114D01*
X186585695Y-62366638D01*
X186680933Y-62271400D01*
X186871409Y-62176161D01*
X187347600Y-62176161D01*
X187633314Y-62271400D01*
X188490457Y-64176161D02*
X188490457Y-62176161D01*
X189157123Y-63604733D01*
X189823790Y-62176161D01*
X189823790Y-64176161D01*
X192014266Y-62176161D02*
X192680933Y-64176161D01*
X193347600Y-62176161D01*
X195061885Y-64176161D02*
X193919028Y-64176161D01*
X194490457Y-64176161D02*
X194490457Y-62176161D01*
X194299980Y-62461876D01*
X194109504Y-62652352D01*
X193919028Y-62747590D01*
X195919028Y-63985685D02*
X196014266Y-64080923D01*
X195919028Y-64176161D01*
X195823790Y-64080923D01*
X195919028Y-63985685D01*
X195919028Y-64176161D01*
X197252361Y-62176161D02*
X197442838Y-62176161D01*
X197633314Y-62271400D01*
X197728552Y-62366638D01*
X197823790Y-62557114D01*
X197919028Y-62938066D01*
X197919028Y-63414257D01*
X197823790Y-63795209D01*
X197728552Y-63985685D01*
X197633314Y-64080923D01*
X197442838Y-64176161D01*
X197252361Y-64176161D01*
X197061885Y-64080923D01*
X196966647Y-63985685D01*
X196871409Y-63795209D01*
X196776171Y-63414257D01*
X196776171Y-62938066D01*
X196871409Y-62557114D01*
X196966647Y-62366638D01*
X197061885Y-62271400D01*
X197252361Y-62176161D01*
X198585695Y-64938066D02*
X198680933Y-64842828D01*
X198871409Y-64557114D01*
X198966647Y-64366638D01*
X199061885Y-64080923D01*
X199157123Y-63604733D01*
X199157123Y-63223780D01*
X199061885Y-62747590D01*
X198966647Y-62461876D01*
X198871409Y-62271400D01*
X198680933Y-61985685D01*
X198585695Y-61890447D01*
D11*
X176855552Y-58264561D02*
X177998409Y-58264561D01*
X177426980Y-60264561D02*
X177426980Y-58264561D01*
X178665076Y-60264561D02*
X178665076Y-58931228D01*
X178665076Y-58264561D02*
X178569838Y-58359800D01*
X178665076Y-58455038D01*
X178760314Y-58359800D01*
X178665076Y-58264561D01*
X178665076Y-58455038D01*
X179617457Y-60264561D02*
X179617457Y-58931228D01*
X179617457Y-59312180D02*
X179712695Y-59121704D01*
X179807933Y-59026466D01*
X179998409Y-58931228D01*
X180188885Y-58931228D01*
X181712695Y-60264561D02*
X181712695Y-59216942D01*
X181617457Y-59026466D01*
X181426980Y-58931228D01*
X181046028Y-58931228D01*
X180855552Y-59026466D01*
X181712695Y-60169323D02*
X181522219Y-60264561D01*
X181046028Y-60264561D01*
X180855552Y-60169323D01*
X180760314Y-59978847D01*
X180760314Y-59788371D01*
X180855552Y-59597895D01*
X181046028Y-59502657D01*
X181522219Y-59502657D01*
X181712695Y-59407419D01*
X182665076Y-58931228D02*
X182665076Y-60264561D01*
X182665076Y-59121704D02*
X182760314Y-59026466D01*
X182950790Y-58931228D01*
X183236504Y-58931228D01*
X183426980Y-59026466D01*
X183522219Y-59216942D01*
X183522219Y-60264561D01*
X185331742Y-58931228D02*
X185331742Y-60550276D01*
X185236504Y-60740752D01*
X185141266Y-60835990D01*
X184950790Y-60931228D01*
X184665076Y-60931228D01*
X184474600Y-60835990D01*
X185331742Y-60169323D02*
X185141266Y-60264561D01*
X184760314Y-60264561D01*
X184569838Y-60169323D01*
X184474600Y-60074085D01*
X184379361Y-59883609D01*
X184379361Y-59312180D01*
X184474600Y-59121704D01*
X184569838Y-59026466D01*
X184760314Y-58931228D01*
X185141266Y-58931228D01*
X185331742Y-59026466D01*
X187141266Y-60264561D02*
X187141266Y-59216942D01*
X187046028Y-59026466D01*
X186855552Y-58931228D01*
X186474600Y-58931228D01*
X186284123Y-59026466D01*
X187141266Y-60169323D02*
X186950790Y-60264561D01*
X186474600Y-60264561D01*
X186284123Y-60169323D01*
X186188885Y-59978847D01*
X186188885Y-59788371D01*
X186284123Y-59597895D01*
X186474600Y-59502657D01*
X186950790Y-59502657D01*
X187141266Y-59407419D01*
X189522219Y-59693133D02*
X190474600Y-59693133D01*
X189331742Y-60264561D02*
X189998409Y-58264561D01*
X190665076Y-60264561D01*
X192093647Y-60169323D02*
X191903171Y-60264561D01*
X191522219Y-60264561D01*
X191331742Y-60169323D01*
X191236504Y-59978847D01*
X191236504Y-59216942D01*
X191331742Y-59026466D01*
X191522219Y-58931228D01*
X191903171Y-58931228D01*
X192093647Y-59026466D01*
X192188885Y-59216942D01*
X192188885Y-59407419D01*
X191236504Y-59597895D01*
X193046028Y-60264561D02*
X193046028Y-58931228D01*
X193046028Y-59312180D02*
X193141266Y-59121704D01*
X193236504Y-59026466D01*
X193426980Y-58931228D01*
X193617457Y-58931228D01*
X194569838Y-60264561D02*
X194379361Y-60169323D01*
X194284123Y-60074085D01*
X194188885Y-59883609D01*
X194188885Y-59312180D01*
X194284123Y-59121704D01*
X194379361Y-59026466D01*
X194569838Y-58931228D01*
X194855552Y-58931228D01*
X195046028Y-59026466D01*
X195141266Y-59121704D01*
X195236504Y-59312180D01*
X195236504Y-59883609D01*
X195141266Y-60074085D01*
X195046028Y-60169323D01*
X194855552Y-60264561D01*
X194569838Y-60264561D01*
X195998409Y-60169323D02*
X196188885Y-60264561D01*
X196569838Y-60264561D01*
X196760314Y-60169323D01*
X196855552Y-59978847D01*
X196855552Y-59883609D01*
X196760314Y-59693133D01*
X196569838Y-59597895D01*
X196284123Y-59597895D01*
X196093647Y-59502657D01*
X195998409Y-59312180D01*
X195998409Y-59216942D01*
X196093647Y-59026466D01*
X196284123Y-58931228D01*
X196569838Y-58931228D01*
X196760314Y-59026466D01*
X197712695Y-58931228D02*
X197712695Y-60931228D01*
X197712695Y-59026466D02*
X197903171Y-58931228D01*
X198284123Y-58931228D01*
X198474600Y-59026466D01*
X198569838Y-59121704D01*
X198665076Y-59312180D01*
X198665076Y-59883609D01*
X198569838Y-60074085D01*
X198474600Y-60169323D01*
X198284123Y-60264561D01*
X197903171Y-60264561D01*
X197712695Y-60169323D01*
X200379361Y-60264561D02*
X200379361Y-59216942D01*
X200284123Y-59026466D01*
X200093647Y-58931228D01*
X199712695Y-58931228D01*
X199522219Y-59026466D01*
X200379361Y-60169323D02*
X200188885Y-60264561D01*
X199712695Y-60264561D01*
X199522219Y-60169323D01*
X199426980Y-59978847D01*
X199426980Y-59788371D01*
X199522219Y-59597895D01*
X199712695Y-59502657D01*
X200188885Y-59502657D01*
X200379361Y-59407419D01*
X202188885Y-60169323D02*
X201998409Y-60264561D01*
X201617457Y-60264561D01*
X201426980Y-60169323D01*
X201331742Y-60074085D01*
X201236504Y-59883609D01*
X201236504Y-59312180D01*
X201331742Y-59121704D01*
X201426980Y-59026466D01*
X201617457Y-58931228D01*
X201998409Y-58931228D01*
X202188885Y-59026466D01*
X203807933Y-60169323D02*
X203617457Y-60264561D01*
X203236504Y-60264561D01*
X203046028Y-60169323D01*
X202950790Y-59978847D01*
X202950790Y-59216942D01*
X203046028Y-59026466D01*
X203236504Y-58931228D01*
X203617457Y-58931228D01*
X203807933Y-59026466D01*
X203903171Y-59216942D01*
X203903171Y-59407419D01*
X202950790Y-59597895D01*
D12*
%TO.C,J14*%
X168910000Y-92770000D02*
X168910000Y-90110000D01*
X168910000Y-92770000D02*
X171510000Y-92770000D01*
X171510000Y-92770000D02*
X171510000Y-90110000D01*
X168910000Y-90110000D02*
X171510000Y-90110000D01*
X166310000Y-90110000D02*
X167640000Y-90110000D01*
X166310000Y-91440000D02*
X166310000Y-90110000D01*
%TO.C,J13*%
X234950000Y-81220000D02*
X234950000Y-83880000D01*
X234950000Y-81220000D02*
X232350000Y-81220000D01*
X232350000Y-81220000D02*
X232350000Y-83880000D01*
X234950000Y-83880000D02*
X232350000Y-83880000D01*
X237550000Y-83880000D02*
X236220000Y-83880000D01*
X237550000Y-82550000D02*
X237550000Y-83880000D01*
%TO.C,U1*%
X157824000Y-116154000D02*
X157824000Y-132744000D01*
X159334000Y-116154000D02*
X157824000Y-116154000D01*
X159334000Y-107934000D02*
X159334000Y-116154000D01*
X157824000Y-107934000D02*
X159334000Y-107934000D01*
X22714000Y-83154000D02*
X24234000Y-83154000D01*
X22714000Y-74934000D02*
X22714000Y-83154000D01*
X24224000Y-74934000D02*
X22714000Y-74934000D01*
X24224000Y-100334000D02*
X24234000Y-83154000D01*
X24224000Y-74934000D02*
X24224000Y-63344000D01*
X21774000Y-100334000D02*
X24224000Y-100334000D01*
X21774000Y-114554000D02*
X21774000Y-100334000D01*
X24224000Y-114554000D02*
X21774000Y-114554000D01*
X157424000Y-62944000D02*
X24624000Y-62944000D01*
X157824000Y-107934000D02*
X157824000Y-63344000D01*
X24624000Y-133144000D02*
X157424000Y-133144000D01*
X24224000Y-114554000D02*
X24224000Y-132744000D01*
X157424000Y-133144000D02*
G75*
G03*
X157824000Y-132744000I0J400000D01*
G01*
X157824000Y-63344000D02*
G75*
G03*
X157424000Y-62944000I-400000J0D01*
G01*
X24624000Y-62944000D02*
G75*
G03*
X24224000Y-63344000I0J-400000D01*
G01*
X24224000Y-132744000D02*
G75*
G03*
X24624000Y-133144000I400000J0D01*
G01*
%TO.C,C17*%
X226545000Y-70505000D02*
X226545000Y-73390000D01*
X228115000Y-70505000D02*
X226545000Y-70505000D01*
X228115000Y-73390000D02*
X228115000Y-70505000D01*
%TO.C,C1*%
X220572000Y-70746252D02*
X220572000Y-70223748D01*
X219102000Y-70746252D02*
X219102000Y-70223748D01*
%TO.C,C2*%
X205204200Y-72370000D02*
X205204200Y-69485000D01*
X203634200Y-72370000D02*
X205204200Y-72370000D01*
X203634200Y-69485000D02*
X203634200Y-72370000D01*
%TO.C,C3*%
X203691600Y-92476000D02*
X203691600Y-95361000D01*
X205261600Y-92476000D02*
X203691600Y-92476000D01*
X205261600Y-95361000D02*
X205261600Y-92476000D01*
%TO.C,C4*%
X208818400Y-94099748D02*
X208818400Y-94622252D01*
X210288400Y-94099748D02*
X210288400Y-94622252D01*
%TO.C,C5*%
X202512600Y-117797948D02*
X202512600Y-118320452D01*
X201042600Y-117797948D02*
X201042600Y-118320452D01*
%TO.C,C6*%
X197127000Y-119059200D02*
X197127000Y-116174200D01*
X197127000Y-116174200D02*
X195557000Y-116174200D01*
X195557000Y-116174200D02*
X195557000Y-119059200D01*
%TO.C,C7*%
X189130000Y-70746252D02*
X189130000Y-70223748D01*
X190600000Y-70746252D02*
X190600000Y-70223748D01*
%TO.C,C8*%
X173713000Y-69485000D02*
X173713000Y-72370000D01*
X173713000Y-72370000D02*
X175283000Y-72370000D01*
X175283000Y-72370000D02*
X175283000Y-69485000D01*
%TO.C,J1*%
X232030700Y-75720000D02*
X232030700Y-73120000D01*
X246730700Y-75720000D02*
X232030700Y-75720000D01*
X232030700Y-66520000D02*
X233930700Y-66520000D01*
X232030700Y-69220000D02*
X232030700Y-66520000D01*
X246730700Y-66520000D02*
X246730700Y-75720000D01*
X237930700Y-66520000D02*
X246730700Y-66520000D01*
X232880700Y-75920000D02*
X231830700Y-75920000D01*
X231830700Y-74870000D02*
X231830700Y-75920000D01*
%TO.C,J3*%
X237591600Y-114436200D02*
X236261600Y-114436200D01*
X236261600Y-114436200D02*
X236261600Y-113106200D01*
X236261600Y-111836200D02*
X236261600Y-93996200D01*
X238921600Y-93996200D02*
X236261600Y-93996200D01*
X238921600Y-111836200D02*
X238921600Y-93996200D01*
X238921600Y-111836200D02*
X236261600Y-111836200D01*
%TO.C,J4*%
X164730000Y-130067200D02*
X167230000Y-130067200D01*
X164730000Y-127567200D02*
X164730000Y-130067200D01*
X176750000Y-128267200D02*
X176750000Y-129767200D01*
X177750000Y-128267200D02*
X176750000Y-128267200D01*
X166030000Y-128267200D02*
X166030000Y-129767200D01*
X165030000Y-128267200D02*
X166030000Y-128267200D01*
X177250000Y-127457200D02*
X177750000Y-127457200D01*
X177250000Y-126247200D02*
X177250000Y-127457200D01*
X165530000Y-126247200D02*
X177250000Y-126247200D01*
X165530000Y-127457200D02*
X165530000Y-126247200D01*
X165030000Y-127457200D02*
X165530000Y-127457200D01*
X177750000Y-125747200D02*
X165030000Y-125747200D01*
X177750000Y-129767200D02*
X177750000Y-125747200D01*
X165030000Y-129767200D02*
X177750000Y-129767200D01*
X165030000Y-125747200D02*
X165030000Y-129767200D01*
%TO.C,Q1*%
X234640000Y-122680000D02*
X234640000Y-121220000D01*
X237800000Y-122680000D02*
X237800000Y-120520000D01*
X237800000Y-122680000D02*
X236870000Y-122680000D01*
X234640000Y-122680000D02*
X235570000Y-122680000D01*
%TO.C,R1*%
X229335064Y-120905600D02*
X228880936Y-120905600D01*
X229335064Y-122375600D02*
X228880936Y-122375600D01*
%TO.C,R2*%
X216032000Y-94133936D02*
X216032000Y-94588064D01*
X214562000Y-94133936D02*
X214562000Y-94588064D01*
%TO.C,R3*%
X221112000Y-94133936D02*
X221112000Y-94588064D01*
X219642000Y-94133936D02*
X219642000Y-94588064D01*
%TO.C,R4*%
X224950600Y-94133936D02*
X224950600Y-94588064D01*
X226420600Y-94133936D02*
X226420600Y-94588064D01*
%TO.C,R5*%
X231170400Y-94133936D02*
X231170400Y-94588064D01*
X229700400Y-94133936D02*
X229700400Y-94588064D01*
%TO.C,R6*%
X222403936Y-122375600D02*
X222858064Y-122375600D01*
X222403936Y-120905600D02*
X222858064Y-120905600D01*
%TO.C,RV1*%
X191879800Y-124825600D02*
X191879800Y-129895600D01*
X182109800Y-124825600D02*
X182109800Y-129895600D01*
X182109800Y-129895600D02*
X191879800Y-129895600D01*
X182109800Y-124825600D02*
X191879800Y-124825600D01*
%TO.C,U2*%
X210239000Y-75660000D02*
X210239000Y-74150000D01*
X213940000Y-75660000D02*
X213940000Y-74150000D01*
X217210000Y-74150000D02*
X206970000Y-74150000D01*
X206970000Y-75660000D02*
X206970000Y-71019000D01*
X217210000Y-75660000D02*
X217210000Y-71019000D01*
X217210000Y-71019000D02*
X206970000Y-71019000D01*
X217210000Y-75660000D02*
X206970000Y-75660000D01*
%TO.C,U11*%
X187365000Y-75660000D02*
X177125000Y-75660000D01*
X187365000Y-71019000D02*
X177125000Y-71019000D01*
X187365000Y-75660000D02*
X187365000Y-71019000D01*
X177125000Y-75660000D02*
X177125000Y-71019000D01*
X187365000Y-74150000D02*
X177125000Y-74150000D01*
X184095000Y-75660000D02*
X184095000Y-74150000D01*
X180394000Y-75660000D02*
X180394000Y-74150000D01*
%TO.C,J14*%
D13*
X164322380Y-92249523D02*
X165036666Y-92249523D01*
X165179523Y-92297142D01*
X165274761Y-92392380D01*
X165322380Y-92535238D01*
X165322380Y-92630476D01*
X165322380Y-91249523D02*
X165322380Y-91820952D01*
X165322380Y-91535238D02*
X164322380Y-91535238D01*
X164465238Y-91630476D01*
X164560476Y-91725714D01*
X164608095Y-91820952D01*
X164655714Y-90392380D02*
X165322380Y-90392380D01*
X164274761Y-90630476D02*
X164989047Y-90868571D01*
X164989047Y-90249523D01*
%TO.C,J13*%
X238442380Y-83359523D02*
X239156666Y-83359523D01*
X239299523Y-83407142D01*
X239394761Y-83502380D01*
X239442380Y-83645238D01*
X239442380Y-83740476D01*
X239442380Y-82359523D02*
X239442380Y-82930952D01*
X239442380Y-82645238D02*
X238442380Y-82645238D01*
X238585238Y-82740476D01*
X238680476Y-82835714D01*
X238728095Y-82930952D01*
X238442380Y-82026190D02*
X238442380Y-81407142D01*
X238823333Y-81740476D01*
X238823333Y-81597619D01*
X238870952Y-81502380D01*
X238918571Y-81454761D01*
X239013809Y-81407142D01*
X239251904Y-81407142D01*
X239347142Y-81454761D01*
X239394761Y-81502380D01*
X239442380Y-81597619D01*
X239442380Y-81883333D01*
X239394761Y-81978571D01*
X239347142Y-82026190D01*
%TO.C,U1*%
X162266380Y-98805904D02*
X163075904Y-98805904D01*
X163171142Y-98758285D01*
X163218761Y-98710666D01*
X163266380Y-98615428D01*
X163266380Y-98424952D01*
X163218761Y-98329714D01*
X163171142Y-98282095D01*
X163075904Y-98234476D01*
X162266380Y-98234476D01*
X163266380Y-97234476D02*
X163266380Y-97805904D01*
X163266380Y-97520190D02*
X162266380Y-97520190D01*
X162409238Y-97615428D01*
X162504476Y-97710666D01*
X162552095Y-97805904D01*
%TO.C,C17*%
X229267142Y-73032857D02*
X229314761Y-73080476D01*
X229362380Y-73223333D01*
X229362380Y-73318571D01*
X229314761Y-73461428D01*
X229219523Y-73556666D01*
X229124285Y-73604285D01*
X228933809Y-73651904D01*
X228790952Y-73651904D01*
X228600476Y-73604285D01*
X228505238Y-73556666D01*
X228410000Y-73461428D01*
X228362380Y-73318571D01*
X228362380Y-73223333D01*
X228410000Y-73080476D01*
X228457619Y-73032857D01*
X229362380Y-72080476D02*
X229362380Y-72651904D01*
X229362380Y-72366190D02*
X228362380Y-72366190D01*
X228505238Y-72461428D01*
X228600476Y-72556666D01*
X228648095Y-72651904D01*
X228362380Y-71747142D02*
X228362380Y-71080476D01*
X229362380Y-71509047D01*
%TO.C,C1*%
X219670333Y-67667142D02*
X219622714Y-67714761D01*
X219479857Y-67762380D01*
X219384619Y-67762380D01*
X219241761Y-67714761D01*
X219146523Y-67619523D01*
X219098904Y-67524285D01*
X219051285Y-67333809D01*
X219051285Y-67190952D01*
X219098904Y-67000476D01*
X219146523Y-66905238D01*
X219241761Y-66810000D01*
X219384619Y-66762380D01*
X219479857Y-66762380D01*
X219622714Y-66810000D01*
X219670333Y-66857619D01*
X220622714Y-67762380D02*
X220051285Y-67762380D01*
X220337000Y-67762380D02*
X220337000Y-66762380D01*
X220241761Y-66905238D01*
X220146523Y-67000476D01*
X220051285Y-67048095D01*
%TO.C,C2*%
X204303333Y-67667142D02*
X204255714Y-67714761D01*
X204112857Y-67762380D01*
X204017619Y-67762380D01*
X203874761Y-67714761D01*
X203779523Y-67619523D01*
X203731904Y-67524285D01*
X203684285Y-67333809D01*
X203684285Y-67190952D01*
X203731904Y-67000476D01*
X203779523Y-66905238D01*
X203874761Y-66810000D01*
X204017619Y-66762380D01*
X204112857Y-66762380D01*
X204255714Y-66810000D01*
X204303333Y-66857619D01*
X204684285Y-66857619D02*
X204731904Y-66810000D01*
X204827142Y-66762380D01*
X205065238Y-66762380D01*
X205160476Y-66810000D01*
X205208095Y-66857619D01*
X205255714Y-66952857D01*
X205255714Y-67048095D01*
X205208095Y-67190952D01*
X204636666Y-67762380D01*
X205255714Y-67762380D01*
%TO.C,C3*%
X206413742Y-94527666D02*
X206461361Y-94575285D01*
X206508980Y-94718142D01*
X206508980Y-94813380D01*
X206461361Y-94956238D01*
X206366123Y-95051476D01*
X206270885Y-95099095D01*
X206080409Y-95146714D01*
X205937552Y-95146714D01*
X205747076Y-95099095D01*
X205651838Y-95051476D01*
X205556600Y-94956238D01*
X205508980Y-94813380D01*
X205508980Y-94718142D01*
X205556600Y-94575285D01*
X205604219Y-94527666D01*
X205508980Y-94194333D02*
X205508980Y-93575285D01*
X205889933Y-93908619D01*
X205889933Y-93765761D01*
X205937552Y-93670523D01*
X205985171Y-93622904D01*
X206080409Y-93575285D01*
X206318504Y-93575285D01*
X206413742Y-93622904D01*
X206461361Y-93670523D01*
X206508980Y-93765761D01*
X206508980Y-94051476D01*
X206461361Y-94146714D01*
X206413742Y-94194333D01*
%TO.C,C4*%
X211590542Y-94527666D02*
X211638161Y-94575285D01*
X211685780Y-94718142D01*
X211685780Y-94813380D01*
X211638161Y-94956238D01*
X211542923Y-95051476D01*
X211447685Y-95099095D01*
X211257209Y-95146714D01*
X211114352Y-95146714D01*
X210923876Y-95099095D01*
X210828638Y-95051476D01*
X210733400Y-94956238D01*
X210685780Y-94813380D01*
X210685780Y-94718142D01*
X210733400Y-94575285D01*
X210781019Y-94527666D01*
X211019114Y-93670523D02*
X211685780Y-93670523D01*
X210638161Y-93908619D02*
X211352447Y-94146714D01*
X211352447Y-93527666D01*
%TO.C,C5*%
X203814742Y-118225866D02*
X203862361Y-118273485D01*
X203909980Y-118416342D01*
X203909980Y-118511580D01*
X203862361Y-118654438D01*
X203767123Y-118749676D01*
X203671885Y-118797295D01*
X203481409Y-118844914D01*
X203338552Y-118844914D01*
X203148076Y-118797295D01*
X203052838Y-118749676D01*
X202957600Y-118654438D01*
X202909980Y-118511580D01*
X202909980Y-118416342D01*
X202957600Y-118273485D01*
X203005219Y-118225866D01*
X202909980Y-117321104D02*
X202909980Y-117797295D01*
X203386171Y-117844914D01*
X203338552Y-117797295D01*
X203290933Y-117702057D01*
X203290933Y-117463961D01*
X203338552Y-117368723D01*
X203386171Y-117321104D01*
X203481409Y-117273485D01*
X203719504Y-117273485D01*
X203814742Y-117321104D01*
X203862361Y-117368723D01*
X203909980Y-117463961D01*
X203909980Y-117702057D01*
X203862361Y-117797295D01*
X203814742Y-117844914D01*
%TO.C,C6*%
X198279142Y-118225866D02*
X198326761Y-118273485D01*
X198374380Y-118416342D01*
X198374380Y-118511580D01*
X198326761Y-118654438D01*
X198231523Y-118749676D01*
X198136285Y-118797295D01*
X197945809Y-118844914D01*
X197802952Y-118844914D01*
X197612476Y-118797295D01*
X197517238Y-118749676D01*
X197422000Y-118654438D01*
X197374380Y-118511580D01*
X197374380Y-118416342D01*
X197422000Y-118273485D01*
X197469619Y-118225866D01*
X197374380Y-117368723D02*
X197374380Y-117559200D01*
X197422000Y-117654438D01*
X197469619Y-117702057D01*
X197612476Y-117797295D01*
X197802952Y-117844914D01*
X198183904Y-117844914D01*
X198279142Y-117797295D01*
X198326761Y-117749676D01*
X198374380Y-117654438D01*
X198374380Y-117463961D01*
X198326761Y-117368723D01*
X198279142Y-117321104D01*
X198183904Y-117273485D01*
X197945809Y-117273485D01*
X197850571Y-117321104D01*
X197802952Y-117368723D01*
X197755333Y-117463961D01*
X197755333Y-117654438D01*
X197802952Y-117749676D01*
X197850571Y-117797295D01*
X197945809Y-117844914D01*
%TO.C,C7*%
X189698333Y-67667142D02*
X189650714Y-67714761D01*
X189507857Y-67762380D01*
X189412619Y-67762380D01*
X189269761Y-67714761D01*
X189174523Y-67619523D01*
X189126904Y-67524285D01*
X189079285Y-67333809D01*
X189079285Y-67190952D01*
X189126904Y-67000476D01*
X189174523Y-66905238D01*
X189269761Y-66810000D01*
X189412619Y-66762380D01*
X189507857Y-66762380D01*
X189650714Y-66810000D01*
X189698333Y-66857619D01*
X190031666Y-66762380D02*
X190698333Y-66762380D01*
X190269761Y-67762380D01*
%TO.C,C8*%
X174458333Y-67667142D02*
X174410714Y-67714761D01*
X174267857Y-67762380D01*
X174172619Y-67762380D01*
X174029761Y-67714761D01*
X173934523Y-67619523D01*
X173886904Y-67524285D01*
X173839285Y-67333809D01*
X173839285Y-67190952D01*
X173886904Y-67000476D01*
X173934523Y-66905238D01*
X174029761Y-66810000D01*
X174172619Y-66762380D01*
X174267857Y-66762380D01*
X174410714Y-66810000D01*
X174458333Y-66857619D01*
X175029761Y-67190952D02*
X174934523Y-67143333D01*
X174886904Y-67095714D01*
X174839285Y-67000476D01*
X174839285Y-66952857D01*
X174886904Y-66857619D01*
X174934523Y-66810000D01*
X175029761Y-66762380D01*
X175220238Y-66762380D01*
X175315476Y-66810000D01*
X175363095Y-66857619D01*
X175410714Y-66952857D01*
X175410714Y-67000476D01*
X175363095Y-67095714D01*
X175315476Y-67143333D01*
X175220238Y-67190952D01*
X175029761Y-67190952D01*
X174934523Y-67238571D01*
X174886904Y-67286190D01*
X174839285Y-67381428D01*
X174839285Y-67571904D01*
X174886904Y-67667142D01*
X174934523Y-67714761D01*
X175029761Y-67762380D01*
X175220238Y-67762380D01*
X175315476Y-67714761D01*
X175363095Y-67667142D01*
X175410714Y-67571904D01*
X175410714Y-67381428D01*
X175363095Y-67286190D01*
X175315476Y-67238571D01*
X175220238Y-67190952D01*
%TO.C,J1*%
X241047366Y-64822380D02*
X241047366Y-65536666D01*
X240999747Y-65679523D01*
X240904509Y-65774761D01*
X240761652Y-65822380D01*
X240666414Y-65822380D01*
X242047366Y-65822380D02*
X241475938Y-65822380D01*
X241761652Y-65822380D02*
X241761652Y-64822380D01*
X241666414Y-64965238D01*
X241571176Y-65060476D01*
X241475938Y-65108095D01*
%TO.C,J3*%
X237258266Y-115328580D02*
X237258266Y-116042866D01*
X237210647Y-116185723D01*
X237115409Y-116280961D01*
X236972552Y-116328580D01*
X236877314Y-116328580D01*
X237639219Y-115328580D02*
X238258266Y-115328580D01*
X237924933Y-115709533D01*
X238067790Y-115709533D01*
X238163028Y-115757152D01*
X238210647Y-115804771D01*
X238258266Y-115900009D01*
X238258266Y-116138104D01*
X238210647Y-116233342D01*
X238163028Y-116280961D01*
X238067790Y-116328580D01*
X237782076Y-116328580D01*
X237686838Y-116280961D01*
X237639219Y-116233342D01*
%TO.C,J4*%
X170989666Y-123480580D02*
X170989666Y-124194866D01*
X170942047Y-124337723D01*
X170846809Y-124432961D01*
X170703952Y-124480580D01*
X170608714Y-124480580D01*
X171894428Y-123813914D02*
X171894428Y-124480580D01*
X171656333Y-123432961D02*
X171418238Y-124147247D01*
X172037285Y-124147247D01*
%TO.C,Q1*%
X239267619Y-122015238D02*
X239220000Y-122110476D01*
X239124761Y-122205714D01*
X238981904Y-122348571D01*
X238934285Y-122443809D01*
X238934285Y-122539047D01*
X239172380Y-122491428D02*
X239124761Y-122586666D01*
X239029523Y-122681904D01*
X238839047Y-122729523D01*
X238505714Y-122729523D01*
X238315238Y-122681904D01*
X238220000Y-122586666D01*
X238172380Y-122491428D01*
X238172380Y-122300952D01*
X238220000Y-122205714D01*
X238315238Y-122110476D01*
X238505714Y-122062857D01*
X238839047Y-122062857D01*
X239029523Y-122110476D01*
X239124761Y-122205714D01*
X239172380Y-122300952D01*
X239172380Y-122491428D01*
X239172380Y-121110476D02*
X239172380Y-121681904D01*
X239172380Y-121396190D02*
X238172380Y-121396190D01*
X238315238Y-121491428D01*
X238410476Y-121586666D01*
X238458095Y-121681904D01*
%TO.C,R1*%
X228941333Y-123742980D02*
X228608000Y-123266790D01*
X228369904Y-123742980D02*
X228369904Y-122742980D01*
X228750857Y-122742980D01*
X228846095Y-122790600D01*
X228893714Y-122838219D01*
X228941333Y-122933457D01*
X228941333Y-123076314D01*
X228893714Y-123171552D01*
X228846095Y-123219171D01*
X228750857Y-123266790D01*
X228369904Y-123266790D01*
X229893714Y-123742980D02*
X229322285Y-123742980D01*
X229608000Y-123742980D02*
X229608000Y-122742980D01*
X229512761Y-122885838D01*
X229417523Y-122981076D01*
X229322285Y-123028695D01*
%TO.C,R2*%
X217399380Y-94527666D02*
X216923190Y-94861000D01*
X217399380Y-95099095D02*
X216399380Y-95099095D01*
X216399380Y-94718142D01*
X216447000Y-94622904D01*
X216494619Y-94575285D01*
X216589857Y-94527666D01*
X216732714Y-94527666D01*
X216827952Y-94575285D01*
X216875571Y-94622904D01*
X216923190Y-94718142D01*
X216923190Y-95099095D01*
X216494619Y-94146714D02*
X216447000Y-94099095D01*
X216399380Y-94003857D01*
X216399380Y-93765761D01*
X216447000Y-93670523D01*
X216494619Y-93622904D01*
X216589857Y-93575285D01*
X216685095Y-93575285D01*
X216827952Y-93622904D01*
X217399380Y-94194333D01*
X217399380Y-93575285D01*
%TO.C,R3*%
X222479380Y-94527666D02*
X222003190Y-94861000D01*
X222479380Y-95099095D02*
X221479380Y-95099095D01*
X221479380Y-94718142D01*
X221527000Y-94622904D01*
X221574619Y-94575285D01*
X221669857Y-94527666D01*
X221812714Y-94527666D01*
X221907952Y-94575285D01*
X221955571Y-94622904D01*
X222003190Y-94718142D01*
X222003190Y-95099095D01*
X221479380Y-94194333D02*
X221479380Y-93575285D01*
X221860333Y-93908619D01*
X221860333Y-93765761D01*
X221907952Y-93670523D01*
X221955571Y-93622904D01*
X222050809Y-93575285D01*
X222288904Y-93575285D01*
X222384142Y-93622904D01*
X222431761Y-93670523D01*
X222479380Y-93765761D01*
X222479380Y-94051476D01*
X222431761Y-94146714D01*
X222384142Y-94194333D01*
%TO.C,R4*%
X227787980Y-94527666D02*
X227311790Y-94861000D01*
X227787980Y-95099095D02*
X226787980Y-95099095D01*
X226787980Y-94718142D01*
X226835600Y-94622904D01*
X226883219Y-94575285D01*
X226978457Y-94527666D01*
X227121314Y-94527666D01*
X227216552Y-94575285D01*
X227264171Y-94622904D01*
X227311790Y-94718142D01*
X227311790Y-95099095D01*
X227121314Y-93670523D02*
X227787980Y-93670523D01*
X226740361Y-93908619D02*
X227454647Y-94146714D01*
X227454647Y-93527666D01*
%TO.C,R5*%
X232537780Y-94527666D02*
X232061590Y-94861000D01*
X232537780Y-95099095D02*
X231537780Y-95099095D01*
X231537780Y-94718142D01*
X231585400Y-94622904D01*
X231633019Y-94575285D01*
X231728257Y-94527666D01*
X231871114Y-94527666D01*
X231966352Y-94575285D01*
X232013971Y-94622904D01*
X232061590Y-94718142D01*
X232061590Y-95099095D01*
X231537780Y-93622904D02*
X231537780Y-94099095D01*
X232013971Y-94146714D01*
X231966352Y-94099095D01*
X231918733Y-94003857D01*
X231918733Y-93765761D01*
X231966352Y-93670523D01*
X232013971Y-93622904D01*
X232109209Y-93575285D01*
X232347304Y-93575285D01*
X232442542Y-93622904D01*
X232490161Y-93670523D01*
X232537780Y-93765761D01*
X232537780Y-94003857D01*
X232490161Y-94099095D01*
X232442542Y-94146714D01*
%TO.C,R6*%
X222464333Y-120442980D02*
X222131000Y-119966790D01*
X221892904Y-120442980D02*
X221892904Y-119442980D01*
X222273857Y-119442980D01*
X222369095Y-119490600D01*
X222416714Y-119538219D01*
X222464333Y-119633457D01*
X222464333Y-119776314D01*
X222416714Y-119871552D01*
X222369095Y-119919171D01*
X222273857Y-119966790D01*
X221892904Y-119966790D01*
X223321476Y-119442980D02*
X223131000Y-119442980D01*
X223035761Y-119490600D01*
X222988142Y-119538219D01*
X222892904Y-119681076D01*
X222845285Y-119871552D01*
X222845285Y-120252504D01*
X222892904Y-120347742D01*
X222940523Y-120395361D01*
X223035761Y-120442980D01*
X223226238Y-120442980D01*
X223321476Y-120395361D01*
X223369095Y-120347742D01*
X223416714Y-120252504D01*
X223416714Y-120014409D01*
X223369095Y-119919171D01*
X223321476Y-119871552D01*
X223226238Y-119823933D01*
X223035761Y-119823933D01*
X222940523Y-119871552D01*
X222892904Y-119919171D01*
X222845285Y-120014409D01*
%TO.C,RV1*%
X186399561Y-124147980D02*
X186066228Y-123671790D01*
X185828133Y-124147980D02*
X185828133Y-123147980D01*
X186209085Y-123147980D01*
X186304323Y-123195600D01*
X186351942Y-123243219D01*
X186399561Y-123338457D01*
X186399561Y-123481314D01*
X186351942Y-123576552D01*
X186304323Y-123624171D01*
X186209085Y-123671790D01*
X185828133Y-123671790D01*
X186685276Y-123147980D02*
X187018609Y-124147980D01*
X187351942Y-123147980D01*
X188209085Y-124147980D02*
X187637657Y-124147980D01*
X187923371Y-124147980D02*
X187923371Y-123147980D01*
X187828133Y-123290838D01*
X187732895Y-123386076D01*
X187637657Y-123433695D01*
%TO.C,U2*%
X211328095Y-76112380D02*
X211328095Y-76921904D01*
X211375714Y-77017142D01*
X211423333Y-77064761D01*
X211518571Y-77112380D01*
X211709047Y-77112380D01*
X211804285Y-77064761D01*
X211851904Y-77017142D01*
X211899523Y-76921904D01*
X211899523Y-76112380D01*
X212328095Y-76207619D02*
X212375714Y-76160000D01*
X212470952Y-76112380D01*
X212709047Y-76112380D01*
X212804285Y-76160000D01*
X212851904Y-76207619D01*
X212899523Y-76302857D01*
X212899523Y-76398095D01*
X212851904Y-76540952D01*
X212280476Y-77112380D01*
X212899523Y-77112380D01*
%TO.C,U11*%
X181006904Y-76112380D02*
X181006904Y-76921904D01*
X181054523Y-77017142D01*
X181102142Y-77064761D01*
X181197380Y-77112380D01*
X181387857Y-77112380D01*
X181483095Y-77064761D01*
X181530714Y-77017142D01*
X181578333Y-76921904D01*
X181578333Y-76112380D01*
X182578333Y-77112380D02*
X182006904Y-77112380D01*
X182292619Y-77112380D02*
X182292619Y-76112380D01*
X182197380Y-76255238D01*
X182102142Y-76350476D01*
X182006904Y-76398095D01*
X183530714Y-77112380D02*
X182959285Y-77112380D01*
X183245000Y-77112380D02*
X183245000Y-76112380D01*
X183149761Y-76255238D01*
X183054523Y-76350476D01*
X182959285Y-76398095D01*
%TD*%
M02*
